# Blender v2.80 (sub 75) OBJ File: 'maform-logo-forweb.blend'
# www.blender.org
mtllib maform-logo.mtl
o node_shape0
v -0.402542 0.177487 0.428153
v 0.330448 -0.066822 -0.017762
v 0.617883 -0.286161 0.413624
v -0.675302 -0.286127 0.405086
v 0.330448 -0.066822 -0.017762
v -0.402542 0.177487 0.428153
v -0.675302 -0.286127 0.405086
v -0.245201 0.256877 -0.067867
v -0.421871 -0.116915 -0.281943
v -0.245201 0.256877 -0.067867
v -0.675302 -0.286127 0.405086
v -0.402542 0.177487 0.428153
v 0.258027 0.311540 -0.013415
v 0.330448 -0.066822 -0.017762
v 0.188870 -0.283190 -0.343742
v 0.258027 0.311540 -0.013415
v 0.617883 -0.286161 0.413624
v 0.330448 -0.066822 -0.017762
v -0.402542 0.177487 0.428153
v 0.617883 -0.286161 0.413624
v 0.258027 0.311540 -0.013415
v -0.421871 -0.116915 -0.281943
v 0.330448 -0.066822 -0.017762
v -0.675302 -0.286127 0.405086
v 0.330448 -0.066822 -0.017762
v -0.421871 -0.116915 -0.281943
v 0.188870 -0.283190 -0.343742
v -0.421871 -0.116915 -0.281943
v 0.258027 0.311540 -0.013415
v 0.188870 -0.283190 -0.343742
v 0.258027 0.311540 -0.013415
v -0.421871 -0.116915 -0.281943
v -0.245201 0.256877 -0.067867
v -0.245201 0.256877 -0.067867
v -0.402542 0.177487 0.428153
v 0.258027 0.311540 -0.013415
vn -0.4089 -0.8942 -0.1822
vn 0.4241 -0.2922 0.8572
vn -0.8427 0.5051 -0.1865
vn 0.8578 0.1698 -0.4852
vn 0.3139 0.6698 0.6729
vn 0.1318 -0.9727 -0.1909
vn -0.1553 -0.7906 0.5922
vn 0.0425 0.4813 -0.8755
vn 0.0424 0.4813 -0.8755
vn -0.1200 0.9855 0.1197
usemtl None
s off
f 1//1 2//1 3//1
f 4//2 5//2 6//2
f 7//3 8//3 9//3
f 10//3 11//3 12//3
f 13//4 14//4 15//4
f 16//4 17//4 18//4
f 19//5 20//5 21//5
f 22//6 23//6 24//6
f 25//7 26//7 27//7
f 28//8 29//8 30//8
f 31//9 32//9 33//9
s 1
f 34//10 35//10 36//10
