<?xml version="1.0" encoding="UTF-8" standalone="no"?>
<!-- Created with Inkscape (http://www.inkscape.org/) -->

<svg
   xmlns:dc="http://purl.org/dc/elements/1.1/"
   xmlns:cc="http://creativecommons.org/ns#"
   xmlns:rdf="http://www.w3.org/1999/02/22-rdf-syntax-ns#"
   xmlns:svg="http://www.w3.org/2000/svg"
   xmlns="http://www.w3.org/2000/svg"
   xmlns:sodipodi="http://sodipodi.sourceforge.net/DTD/sodipodi-0.dtd"
   xmlns:inkscape="http://www.inkscape.org/namespaces/inkscape"
   version="1.1"
   id="svg2"
   xml:space="preserve"
   width="1100"
   height="200"
   viewBox="0 0 1100 199.99999"
   sodipodi:docname="paq-steps.svg"
   inkscape:version="0.92.3 (2405546, 2018-03-11)"><metadata
     id="metadata8"><rdf:RDF><cc:Work
         rdf:about=""><dc:format>image/svg+xml</dc:format><dc:type
           rdf:resource="http://purl.org/dc/dcmitype/StillImage" /><dc:title>paq bed assembly steps - Maform all rigths reserved</dc:title></cc:Work></rdf:RDF></metadata><defs
     id="defs6"><clipPath
       clipPathUnits="userSpaceOnUse"
       id="clipPath24"><path
         d="M 18.827,889.063 H 1237.725 V 18.827 H 18.827 Z"
         id="path22"
         inkscape:connector-curvature="0" /></clipPath><clipPath
       clipPathUnits="userSpaceOnUse"
       id="clipPath268"><path
         d="M 18.827,889.063 H 1237.725 V 18.827 H 18.827 Z"
         id="path266"
         inkscape:connector-curvature="0" /></clipPath><clipPath
       clipPathUnits="userSpaceOnUse"
       id="clipPath348"><path
         d="M 18.827,889.063 H 1237.725 V 18.827 H 18.827 Z"
         id="path346"
         inkscape:connector-curvature="0" /></clipPath><clipPath
       clipPathUnits="userSpaceOnUse"
       id="clipPath436"><path
         d="M 18.827,889.063 H 1237.725 V 18.827 H 18.827 Z"
         id="path434"
         inkscape:connector-curvature="0" /></clipPath><clipPath
       clipPathUnits="userSpaceOnUse"
       id="clipPath460"><path
         d="M 18.827,889.063 H 1237.725 V 18.827 H 18.827 Z"
         id="path458"
         inkscape:connector-curvature="0" /></clipPath><clipPath
       clipPathUnits="userSpaceOnUse"
       id="clipPath594"><path
         d="M 18.827,889.063 H 1237.725 V 18.827 H 18.827 Z"
         id="path592"
         inkscape:connector-curvature="0" /></clipPath><clipPath
       clipPathUnits="userSpaceOnUse"
       id="clipPath700"><path
         d="M 18.827,889.063 H 1237.725 V 18.827 H 18.827 Z"
         id="path698"
         inkscape:connector-curvature="0" /></clipPath><clipPath
       clipPathUnits="userSpaceOnUse"
       id="clipPath738"><path
         d="M 18.827,889.063 H 1237.725 V 18.827 H 18.827 Z"
         id="path736"
         inkscape:connector-curvature="0" /></clipPath><clipPath
       clipPathUnits="userSpaceOnUse"
       id="clipPath982"><path
         d="M 18.827,889.063 H 1237.725 V 18.827 H 18.827 Z"
         id="path980"
         inkscape:connector-curvature="0" /></clipPath><clipPath
       clipPathUnits="userSpaceOnUse"
       id="clipPath1062"><path
         d="M 18.827,889.063 H 1237.725 V 18.827 H 18.827 Z"
         id="path1060"
         inkscape:connector-curvature="0" /></clipPath><clipPath
       clipPathUnits="userSpaceOnUse"
       id="clipPath1150"><path
         d="M 18.827,889.063 H 1237.725 V 18.827 H 18.827 Z"
         id="path1148"
         inkscape:connector-curvature="0" /></clipPath><clipPath
       clipPathUnits="userSpaceOnUse"
       id="clipPath1174"><path
         d="M 18.827,889.063 H 1237.725 V 18.827 H 18.827 Z"
         id="path1172"
         inkscape:connector-curvature="0" /></clipPath><clipPath
       clipPathUnits="userSpaceOnUse"
       id="clipPath1308"><path
         d="M 18.827,889.063 H 1237.725 V 18.827 H 18.827 Z"
         id="path1306"
         inkscape:connector-curvature="0" /></clipPath><clipPath
       clipPathUnits="userSpaceOnUse"
       id="clipPath1414"><path
         d="M 18.827,889.063 H 1237.725 V 18.827 H 18.827 Z"
         id="path1412"
         inkscape:connector-curvature="0" /></clipPath></defs><sodipodi:namedview
     pagecolor="#ffffff"
     bordercolor="#666666"
     borderopacity="1"
     objecttolerance="10"
     gridtolerance="10"
     guidetolerance="10"
     inkscape:pageopacity="0"
     inkscape:pageshadow="2"
     inkscape:window-width="640"
     inkscape:window-height="480"
     id="namedview4"
     showgrid="false"
     inkscape:zoom="0.62619243"
     inkscape:cx="643.44815"
     inkscape:cy="336.08576"
     inkscape:current-layer="g10" /><g
     id="g10"
     inkscape:groupmode="layer"
     inkscape:label="manual_final_a3_print"
     transform="matrix(1.3333333,0,0,-1.3333333,0,199.99998)"><g
       id="g3739"
       transform="matrix(0.88688313,0,0,0.88688313,96.624385,-515.43246)"><path
         d="m 56.009,617.8903 c 0.236,-0.474 8.765,-17.574 9.309,-18.55 0.469,-0.843 0.801,-1.979 3.949,-1.737 1.54,0.12 175.825,18.956 178.036,19.589 2.212,0.633 1.739,5.213 1.896,5.372 0.158,0.157 1.323,-0.642 1.501,-0.495 0.177,0.148 -0.978,0.86 -1.007,1.274 -0.031,0.415 -0.088,2.666 -0.119,2.843 -0.118,0.682 -0.75,1.156 -1.648,1.442 -0.851,0.272 -37.261,11.675 -37.658,11.798 -0.759,0.238 -1.767,0.238 -2.192,0.238 -0.565,0 -150.156,-11.407 -150.637,-11.434 -0.751,-0.04 -1.141,-0.344 -1.187,-0.982 -0.053,-0.747 -0.35,-3.596 -0.153,-3.932 0.191,-0.327 -0.606,-0.107 -0.731,-0.376 -0.118,-0.256 0.217,-0.237 0.513,-0.297 0.297,-0.058 0.045,-2.825 -0.052,-3.624 -0.042,-0.348 -0.055,-0.655 0.18,-1.129 z"
         style="fill:none;stroke:#110f0d;stroke-width:1.20000005;stroke-linecap:butt;stroke-linejoin:miter;stroke-miterlimit:10;stroke-dasharray:none;stroke-opacity:1"
         id="path132"
         inkscape:connector-curvature="0" /><path
         d="m 56.9841,621.8925 c 0,0 0.469,-0.641 1.266,-1.895 0.805,-1.248 1.984,-3.08 3.408,-5.455 1.448,-2.365 3.176,-5.239 5.083,-8.606 0.438,-0.789 0.991,-1.392 1.771,-1.363 0.1,0 0.204,0.006 0.312,0.017 l 0.388,0.04 c 0.258,0.026 0.519,0.053 0.781,0.08 0.524,0.053 1.054,0.108 1.592,0.163 2.151,0.22 4.414,0.451 6.774,0.692 18.881,1.94 44.057,4.526 69.232,7.112 25.178,2.558 50.356,5.115 69.24,7.033 9.439,0.98 17.306,1.797 22.812,2.369 2.751,0.31 4.912,0.554 6.385,0.72 0.735,0.097 1.299,0.171 1.679,0.22 0.379,0.054 0.569,0.11 0.569,0.11 0,0 -0.189,-0.059 -0.568,-0.117 -0.379,-0.055 -0.942,-0.136 -1.676,-0.242 -1.471,-0.185 -3.63,-0.457 -6.376,-0.803 -5.499,-0.643 -13.355,-1.562 -22.781,-2.665 -18.855,-2.19 -44.021,-4.877 -69.18,-7.621 -25.169,-2.65 -50.338,-5.299 -69.215,-7.287 -2.36,-0.247 -4.621,-0.483 -6.772,-0.708 -0.537,-0.057 -1.068,-0.112 -1.592,-0.167 -0.262,-0.027 -0.522,-0.055 -0.78,-0.082 l -0.384,-0.04 c -0.149,-0.015 -0.301,-0.022 -0.457,-0.02 -0.626,-0.005 -1.31,0.258 -1.762,0.669 -0.456,0.392 -0.773,0.895 -1.015,1.329 -1.864,3.359 -3.458,6.329 -4.741,8.78 -1.31,2.439 -2.286,4.385 -2.961,5.707 -0.673,1.324 -1.032,2.03 -1.032,2.03"
         style="fill:#110f0d;fill-opacity:1;fill-rule:nonzero;stroke:none"
         id="path136"
         inkscape:connector-curvature="0" /><path
         d="m 62.3653,628.524 -0.108,25.151 c 0,0 -0.488,0.252 -0.488,0.627 0,0.789 -0.005,3.19 19.09,3.19 17.635,0 17.631,-2.208 17.635,-2.919 0.002,-0.414 -0.466,-0.633 -0.466,-0.633 l 0.466,-22.647"
         style="fill:none;stroke:#110f0d;stroke-width:1.20000005;stroke-linecap:butt;stroke-linejoin:miter;stroke-miterlimit:10;stroke-dasharray:none;stroke-opacity:1"
         id="path140"
         inkscape:connector-curvature="0" /><path
         d="m 63.2908,654.8742 c -0.01,-10e-4 0.045,-0.137 0.266,-0.261 0.218,-0.12 0.56,-0.251 1.012,-0.364 0.9,-0.242 2.228,-0.402 3.821,-0.538 1.595,-0.134 3.462,-0.209 5.464,-0.261 2.001,-0.063 4.142,-0.07 6.275,-0.065 2.142,-0.004 4.278,0.003 6.279,0.067 2.002,0.05 3.869,0.129 5.464,0.262 1.593,0.136 2.921,0.297 3.822,0.537 0.451,0.113 0.794,0.243 1.013,0.362 0.221,0.123 0.276,0.26 0.266,0.261 0.01,0 -0.035,-0.143 -0.249,-0.287 -0.213,-0.136 -0.548,-0.306 -0.999,-0.443 -0.898,-0.288 -2.22,-0.562 -3.819,-0.751 -1.599,-0.182 -3.471,-0.368 -5.48,-0.44 -2.01,-0.089 -4.155,-0.122 -6.293,-0.144 -2.147,0.019 -4.287,0.054 -6.297,0.141 -2.009,0.071 -3.88,0.256 -5.48,0.438 -1.599,0.188 -2.921,0.464 -3.819,0.753 -0.451,0.139 -0.786,0.308 -0.997,0.445 -0.215,0.145 -0.26,0.289 -0.249,0.288"
         style="fill:#110f0d;fill-opacity:1;fill-rule:nonzero;stroke:none"
         id="path144"
         inkscape:connector-curvature="0" /></g><g
       id="g3763"
       transform="matrix(0.88688313,0,0,0.88688313,47.347085,-595.05037)"><path
         d="m 369.5761,721.5735 c 0,0 -9.439,-1.845 -23.918,-8.02 -14.478,-6.174 -5.961,-20.795 1.136,-23.563 7.097,-2.768 25.195,-3.69 33.996,-4.187 8.8,-0.497 22.001,-4.542 36.337,-3.336 14.337,1.207 26.26,11.853 38.538,20.014 12.279,8.162 0.284,16.537 -2.767,17.46 -3.052,0.922 -28.634,-1.56 -35.103,2.356 -1.861,1.126 -3.341,0.908 -16.906,-7.499"
         style="fill:none;stroke:#110f0d;stroke-width:1.20000005;stroke-linecap:butt;stroke-linejoin:miter;stroke-miterlimit:10;stroke-dasharray:none;stroke-opacity:1"
         id="path148"
         inkscape:connector-curvature="0" /><path
         d="m 376.2702,722.9902 c 2.981,1.206 5.336,1.47 7.182,2.676"
         style="fill:none;stroke:#110f0d;stroke-width:1.08899999;stroke-linecap:butt;stroke-linejoin:miter;stroke-miterlimit:10;stroke-dasharray:none;stroke-opacity:1"
         id="path152"
         inkscape:connector-curvature="0" /><path
         d="m 394.868,720.2258 c 0,0 -0.262,-0.008 -0.721,-0.022 -0.467,-0.009 -1.127,-0.015 -1.916,-0.007 -1.577,0.016 -3.678,0.083 -5.774,0.228 -2.095,0.149 -4.187,0.384 -5.732,0.7 -0.774,0.153 -1.404,0.343 -1.836,0.5 -0.422,0.183 -0.654,0.304 -0.654,0.304 0,0 0.24,-0.109 0.666,-0.27 0.438,-0.133 1.071,-0.29 1.847,-0.403 1.55,-0.235 3.639,-0.364 5.728,-0.406 2.09,-0.038 4.181,0.002 5.745,0.066 1.563,0.058 2.596,0.16 2.596,0.16 z"
         style="fill:#110f0d;fill-opacity:1;fill-rule:nonzero;stroke:none"
         id="path156"
         inkscape:connector-curvature="0" /><path
         d="m 460.7568,712.2917 c 1.109,1.845 0.634,5.52 -0.123,6.371 -0.757,0.852 -6.07,9.344 -7.192,10.882 -0.662,0.909 -2.247,0.593 -3.478,0.025"
         style="fill:none;stroke:#110f0d;stroke-width:1.08899999;stroke-linecap:butt;stroke-linejoin:miter;stroke-miterlimit:10;stroke-dasharray:none;stroke-opacity:1"
         id="path160"
         inkscape:connector-curvature="0" /><path
         d="m 454.749,719.0557 c 0.142,1.68 -2.183,10.798 -6.299,10.916 -4.116,0.118 -10.943,-1.893 -13.475,-3.714"
         style="fill:none;stroke:#110f0d;stroke-width:1.20000005;stroke-linecap:butt;stroke-linejoin:miter;stroke-miterlimit:10;stroke-dasharray:none;stroke-opacity:1"
         id="path164"
         inkscape:connector-curvature="0" /><path
         d="m 435.6159,719.9972 c 0,0 -6.067,35.946 -10.077,43.647"
         style="fill:none;stroke:#110f0d;stroke-width:1.20000005;stroke-linecap:butt;stroke-linejoin:miter;stroke-miterlimit:10;stroke-dasharray:none;stroke-opacity:1"
         id="path168"
         inkscape:connector-curvature="0" /><path
         d="m 421.8583,720.9348 c -0.685,4.471 -3.43,16.276 -11.379,20.345"
         style="fill:none;stroke:#110f0d;stroke-width:1.08899999;stroke-linecap:butt;stroke-linejoin:miter;stroke-miterlimit:10;stroke-dasharray:none;stroke-opacity:1"
         id="path172"
         inkscape:connector-curvature="0" /><path
         d="m 412.5615,753.4872 c 2.271,0.947 12.205,9.057 13.816,11.545 0.353,0.544 -0.404,0.952 -1.727,1.467 -1.277,0.497 -18.713,22.569 -26,22.853 -7.286,0.284 -15.424,-1.158 -15.424,-1.158"
         style="fill:none;stroke:#110f0d;stroke-width:1.08899999;stroke-linecap:butt;stroke-linejoin:miter;stroke-miterlimit:10;stroke-dasharray:none;stroke-opacity:1"
         id="path176"
         inkscape:connector-curvature="0" /><path
         d="m 410.4793,775.82 c 0,0 0.085,-0.132 0.156,-0.384 0.085,-0.25 0.099,-0.623 0.148,-1.092 0.088,-0.936 0.15,-2.285 0.29,-3.898 0.263,-3.229 0.741,-7.527 1.187,-11.832 0.226,-2.152 0.423,-4.308 0.592,-6.333 0.166,-2.026 0.257,-3.923 0.252,-5.563 0.012,-0.821 -0.052,-1.576 -0.111,-2.257 -0.086,-0.683 -0.213,-1.292 -0.5,-1.815 -0.093,-0.13 -0.189,-0.253 -0.284,-0.366 -0.099,-0.109 -0.257,-0.186 -0.381,-0.261 -0.255,-0.137 -0.542,-0.126 -0.728,-0.132 -0.35,0.059 -0.541,0.114 -0.541,0.114 l 0.488,1.096 c 0,0 0.069,-0.021 0.205,-0.102 0.107,0.006 0.22,-0.097 0.459,0.172 0.215,0.287 0.398,0.8 0.541,1.413 0.125,0.624 0.196,1.352 0.234,2.153 0.086,1.604 -0.022,3.493 -0.145,5.511 -0.126,2.019 -0.352,4.169 -0.573,6.319 -0.456,4.3 -0.952,8.6 -1.226,11.838 -0.132,1.62 -0.253,2.969 -0.251,3.923 -0.007,0.476 -0.003,0.846 0.059,1.103 0.053,0.255 0.129,0.393 0.129,0.393"
         style="fill:#110f0d;fill-opacity:1;fill-rule:nonzero;stroke:none"
         id="path180"
         inkscape:connector-curvature="0" /><path
         d="m 397.739,772.2307 c 0,0 0.443,-1.845 0.642,-4.673 0.228,-2.824 0.301,-6.6 0.331,-10.368 0.037,-3.766 0.042,-7.541 0.28,-10.32 0.06,-0.693 0.138,-1.322 0.234,-1.863 0.099,-0.533 0.221,-0.996 0.364,-1.274 0.066,-0.143 0.141,-0.234 0.168,-0.246 0.032,-0.012 -0.015,0.003 -0.023,0.006 -0.014,-0.002 0.067,0.034 0.055,0.027 l 0.56,-1.061 c -0.016,0.015 -0.133,-0.12 -0.589,-0.154 -0.231,-0.018 -0.552,0.096 -0.763,0.287 -0.221,0.193 -0.351,0.42 -0.454,0.651 -0.21,0.468 -0.313,0.991 -0.406,1.587 -0.085,0.593 -0.141,1.254 -0.177,1.97 -0.138,2.863 0,6.629 0.102,10.396 0.109,3.764 0.176,7.528 0.052,10.346 -0.101,2.821 -0.445,4.676 -0.445,4.676 z"
         style="fill:#110f0d;fill-opacity:1;fill-rule:nonzero;stroke:none"
         id="path184"
         inkscape:connector-curvature="0" /><path
         d="m 382.2802,766.168 c -5.22,0.705 -18.934,7.164 -19.838,11.712 -0.875,4.4 -1.075,16.298 7.631,16.866 8.706,0.568 15.916,-9.159 16.993,-12.262 1.331,-3.833 -1.285,-16.789 -4.786,-16.316 z"
         style="fill:none;stroke:#110f0d;stroke-width:1.08899999;stroke-linecap:butt;stroke-linejoin:miter;stroke-miterlimit:10;stroke-dasharray:none;stroke-opacity:1"
         id="path188"
         inkscape:connector-curvature="0" /><path
         d="m 367.3687,772.6983 c -2.177,-3.381 -3.825,-40.479 -0.714,-38.279"
         style="fill:none;stroke:#110f0d;stroke-width:1.20000005;stroke-linecap:butt;stroke-linejoin:miter;stroke-miterlimit:10;stroke-dasharray:none;stroke-opacity:1"
         id="path192"
         inkscape:connector-curvature="0" /><path
         d="m 376.6024,734.9086 c 3.655,-2.476 0,23.026 1.514,25.014 1.513,1.988 17.556,-6.286 20.234,-8.565"
         style="fill:none;stroke:#110f0d;stroke-width:1.20000005;stroke-linecap:butt;stroke-linejoin:miter;stroke-miterlimit:10;stroke-dasharray:none;stroke-opacity:1"
         id="path196"
         inkscape:connector-curvature="0" /><path
         d="m 408.398,733.3316 c 1.609,0.473 5.988,1.167 8.672,1.577"
         style="fill:none;stroke:#110f0d;stroke-width:0.852;stroke-linecap:butt;stroke-linejoin:miter;stroke-miterlimit:10;stroke-dasharray:none;stroke-opacity:1"
         id="path200"
         inkscape:connector-curvature="0" /><path
         d="m 382.4897,720.9365 c 0.378,3.689 6.399,28.746 9.766,34.055"
         style="fill:none;stroke:#110f0d;stroke-width:1.20000005;stroke-linecap:butt;stroke-linejoin:miter;stroke-miterlimit:10;stroke-dasharray:none;stroke-opacity:1"
         id="path204"
         inkscape:connector-curvature="0" /><path
         d="m 410.4795,743.6459 c 2.402,-2.562 -9.179,-25.36 -9.463,-27.726 -0.284,-2.366 -1.215,-12.018 -2.453,-13.816 -1.237,-1.798 -7.199,-4.258 -10.227,-3.502 -3.028,0.757 -2.555,4.921 -2.177,7.287 0.379,2.366 6.813,8.422 8.138,12.207 1.325,3.785 5.962,23.385 5.773,24.894 -0.189,1.508 2.931,2.17 5.251,1.603 2.319,-0.568 3.739,0.567 5.158,-0.947 z"
         style="fill:none;stroke:#110f0d;stroke-width:1.08899999;stroke-linecap:butt;stroke-linejoin:miter;stroke-miterlimit:10;stroke-dasharray:none;stroke-opacity:1"
         id="path208"
         inkscape:connector-curvature="0" /><path
         d="m 386.1587,708.9637 c 0.302,-2.862 -0.767,-3.512 -2.565,-4.157 -1.798,-0.645 -9.262,1.632 -10.398,2.682 -1.136,1.05 -0.757,4.928 -1.325,6.537 -0.568,1.61 -5.488,20.252 -5.204,21.577 0.283,1.325 2.838,3.397 4.731,2.929 1.892,-0.469 4.543,-0.09 5.205,-2.456 0.662,-2.366 -1.157,-17.651 0.898,-18.548 2.603,-1.136 7.015,-6.387 7.429,-7.192 0.466,-0.904 1.129,-0.42 1.229,-1.372 z"
         style="fill:none;stroke:#110f0d;stroke-width:1.08899999;stroke-linecap:butt;stroke-linejoin:miter;stroke-miterlimit:10;stroke-dasharray:none;stroke-opacity:1"
         id="path212"
         inkscape:connector-curvature="0" /><path
         d="m 413.6111,722.0714 c 1.703,1.384 2.641,1.608 2.262,2.365 -0.378,0.757 -1.23,2.839 -2.365,3.028 -1.136,0.189 -8.389,-3.874 -9.731,-4.682"
         style="fill:none;stroke:#110f0d;stroke-width:1;stroke-linecap:butt;stroke-linejoin:miter;stroke-miterlimit:10;stroke-dasharray:none;stroke-opacity:1"
         id="path216"
         inkscape:connector-curvature="0" /><path
         d="m 421.8582,695.9525 c 0,0 0.132,0.073 0.379,0.21 0.246,0.136 0.609,0.329 1.047,0.61 0.427,0.283 0.99,0.615 1.412,1.133 0.204,0.261 0.322,0.559 0.206,0.795 -0.109,0.253 -0.438,0.491 -0.806,0.672 -0.75,0.374 -1.687,0.612 -2.674,0.817 -0.993,0.197 -2.06,0.34 -3.168,0.445 -2.216,0.207 -4.603,0.268 -6.976,0.173 -1.193,-0.048 -2.357,-0.142 -3.533,-0.295 -1.167,-0.149 -2.315,-0.296 -3.426,-0.438 -2.223,-0.286 -4.294,-0.585 -6.068,-0.854 -3.553,-0.506 -5.912,-0.892 -5.912,-0.892 l -0.168,0.986 c 0,0 2.365,0.423 5.925,0.96 1.783,0.251 3.865,0.529 6.101,0.793 1.117,0.128 2.28,0.24 3.455,0.345 1.168,0.107 2.394,0.212 3.596,0.239 2.415,0.069 4.829,-0.022 7.083,-0.259 1.127,-0.121 2.213,-0.279 3.237,-0.495 1.023,-0.22 1.989,-0.485 2.838,-0.942 0.411,-0.235 0.839,-0.527 1.045,-1.045 0.098,-0.258 0.08,-0.56 -0.018,-0.781 -0.096,-0.226 -0.232,-0.398 -0.371,-0.545 -0.575,-0.558 -1.163,-0.836 -1.646,-1.059 -0.974,-0.426 -1.558,-0.573 -1.558,-0.573"
         style="fill:#110f0d;fill-opacity:1;fill-rule:nonzero;stroke:none"
         id="path220"
         inkscape:connector-curvature="0" /><path
         d="m 386.4119,700.3637 c 0,0 -0.115,-0.064 -0.35,-0.253 -0.229,-0.187 -0.557,-0.49 -0.878,-0.947 l -0.059,-0.088 -0.029,-0.045 -0.077,-0.104 c -0.022,-0.023 -0.006,-0.012 -0.061,-0.065 -0.051,-0.047 -0.115,-0.094 -0.172,-0.127 -0.069,-0.034 -0.148,-0.069 -0.205,-0.084 -0.247,-0.075 -0.446,-0.089 -0.654,-0.103 -0.411,-0.022 -0.827,-0.005 -1.268,0.025 -0.881,0.061 -1.853,0.182 -2.91,0.333 -2.112,0.295 -4.547,0.755 -7.149,1.272 -1.298,0.264 -2.64,0.537 -4.004,0.815 -1.359,0.259 -2.753,0.62 -4.106,0.776 -2.777,0.319 -5.603,0.429 -8.238,0.477 -2.638,0.037 -5.106,-0.012 -7.19,-0.229 -1.029,-0.111 -2.016,-0.219 -2.728,-0.535 -0.366,-0.206 -0.45,-0.278 -0.22,-0.556 0.21,-0.242 0.506,-0.427 0.762,-0.58 0.52,-0.311 0.96,-0.525 1.257,-0.669 0.3,-0.145 0.459,-0.223 0.459,-0.223 0,0 -0.172,0.045 -0.494,0.13 -0.317,0.102 -0.79,0.229 -1.367,0.486 -0.286,0.137 -0.606,0.28 -0.921,0.569 -0.141,0.135 -0.352,0.381 -0.267,0.733 0.105,0.324 0.349,0.457 0.553,0.577 0.856,0.417 1.828,0.567 2.892,0.718 2.13,0.248 4.612,0.329 7.27,0.326 2.659,-0.014 5.488,-0.086 8.33,-0.375 1.458,-0.153 2.812,-0.488 4.186,-0.731 1.366,-0.258 2.709,-0.512 4.009,-0.758 2.601,-0.479 5.032,-0.895 7.113,-1.21 1.041,-0.152 1.997,-0.273 2.834,-0.334 0.416,-0.03 0.807,-0.045 1.141,-0.028 0.162,0.007 0.322,0.028 0.402,0.054 0.026,0.006 0.023,0.01 0.03,0.009 -0.022,-0.01 -0.052,-0.033 -0.07,-0.058 -0.02,-0.03 0.018,0.019 0.024,0.024 l 0.005,0.005 c 0.011,0.015 -0.079,-0.107 -0.039,-0.052 l 0.009,0.014 0.019,0.027 0.036,0.055 0.073,0.107 c 0.393,0.555 0.788,0.917 1.071,1.147 0.281,0.226 0.475,0.337 0.475,0.337 z"
         style="fill:#110f0d;fill-opacity:1;fill-rule:nonzero;stroke:none"
         id="path224"
         inkscape:connector-curvature="0" /><path
         d="m 399.8375,704.6588 c 0,0 29.684,4.904 31.349,-5.583 1.473,-9.274 -23.661,-10.315 -32.623,-9.179 -8.961,1.135 -27.982,4.448 -34.795,4.448 -6.813,0 -23.846,-0.284 -21.765,8.169 2.105,8.546 34.031,2.061 42.324,0.347 0.606,-0.125 0.807,0.375 1.582,0.918"
         style="fill:none;stroke:#110f0d;stroke-width:0.60000002;stroke-linecap:butt;stroke-linejoin:miter;stroke-miterlimit:10;stroke-dasharray:none;stroke-opacity:1"
         id="path228"
         inkscape:connector-curvature="0" /><path
         d="m 417.7952,722.2971 c 0,0 2.269,3.117 2.884,3.961"
         style="fill:none;stroke:#110f0d;stroke-width:0.852;stroke-linecap:butt;stroke-linejoin:miter;stroke-miterlimit:10;stroke-dasharray:none;stroke-opacity:1"
         id="path232"
         inkscape:connector-curvature="0" /></g><g
       id="g3802"
       transform="matrix(0.88688313,0,0,0.88688313,153.24617,-415.92559)"><path
         d="m 429.5083,488.0001 c -1.601,-1.27 -8.062,-6.681 -9.276,-6.792 -1.215,-0.11 -0.552,-1.049 0,-1.159 0.552,-0.111 6.681,-1.712 8.172,-0.884 1.491,0.829 4.491,2.761 6.294,2.761 1.215,0 3.792,0.368 4.307,1.878"
         style="fill:none;stroke:#110f0d;stroke-width:0.71799999;stroke-linecap:butt;stroke-linejoin:miter;stroke-miterlimit:10;stroke-dasharray:none;stroke-opacity:1"
         id="path464"
         inkscape:connector-curvature="0" /><path
         d="m 449.8172,568.4897 c 0,0 0.016,-0.166 0.047,-0.487 0.004,-0.329 0.008,-0.945 -0.051,-1.547 -0.092,-1.271 -0.302,-3.099 -0.627,-5.415 -0.325,-2.316 -0.759,-5.118 -1.315,-8.325 -0.286,-1.609 -0.57,-3.296 -0.987,-5.121 -0.025,-0.111 -0.048,-0.223 -0.106,-0.389 l -0.078,-0.226 -0.02,-0.056 c -0.012,-0.029 0.024,0.044 10e-4,-0.006 l -0.031,-0.08 c -0.095,-0.221 -0.151,-0.414 -0.22,-0.616 -0.138,-0.436 -0.279,-0.876 -0.421,-1.322 -0.274,-0.913 -0.555,-1.847 -0.841,-2.801 -1.106,-3.825 -2.32,-7.996 -3.323,-12.419 -0.12,-0.545 -0.237,-1.12 -0.298,-1.629 -0.009,-0.12 -0.037,-0.261 -0.032,-0.364 l 0.01,-0.437 0.045,-0.855 c 0.079,-1.166 0.158,-2.347 0.238,-3.541 0.156,-2.402 0.315,-4.855 0.476,-7.35 0.254,-4.999 0.527,-10.168 0.187,-15.467 -0.082,-1.324 -0.252,-2.661 -0.575,-4.011 -0.34,-1.28 -0.638,-2.523 -0.839,-3.816 -0.206,-1.287 -0.321,-2.588 -0.375,-3.902 l -0.067,-1.997 c -0.06,-0.682 -0.001,-1.371 -0.435,-2.203 l -0.043,-0.075 c 0.044,0.041 -0.107,-0.144 -0.108,-0.138 l -0.096,-0.09 c -0.162,-0.126 -0.392,-0.217 -0.484,-0.224 -0.255,-0.06 -0.454,-0.049 -0.652,-0.04 -0.387,0.028 -0.739,0.097 -1.079,0.182 -0.682,0.168 -1.324,0.391 -1.961,0.627 -1.269,0.477 -2.495,1.023 -3.702,1.609 -0.603,0.294 -1.199,0.599 -1.791,0.927 -0.298,0.17 -0.585,0.33 -0.9,0.552 -0.078,0.092 -0.168,0.043 -0.352,0.418 -0.014,0.058 -0.038,0.206 -0.047,0.349 -0.011,0.16 -0.004,0.258 -0.002,0.333 l 0.01,0.259 c 0.079,1.345 0.214,2.649 0.342,3.959 0.544,5.216 1.079,10.349 1.597,15.317 0.232,2.479 0.478,4.932 0.562,7.3 0.006,0.291 0.015,0.592 -0.003,0.862 -0.001,0.15 -0.022,0.253 -0.034,0.358 l -0.122,0.41 c -0.177,0.511 -0.408,1.062 -0.635,1.596 -0.463,1.073 -0.936,2.143 -1.351,3.225 -0.826,2.136 -1.474,4.438 -1.287,6.668 0.065,2.136 0.061,4.22 0.076,6.217 0.028,7.99 0.047,14.654 0.172,19.321 0.054,2.333 0.118,4.172 0.341,5.418 0.102,0.623 0.215,1.096 0.329,1.411 0.093,0.315 0.162,0.468 0.162,0.468 0,0 0.014,-0.668 0.041,-1.921 0.033,-1.244 -0.062,-3.066 -0.108,-5.394 -0.106,-4.654 -0.097,-11.312 -0.093,-19.305 -0.006,-1.999 0.007,-4.079 -0.051,-6.249 -0.167,-2.1 0.436,-4.2 1.256,-6.311 0.409,-1.054 0.879,-2.106 1.35,-3.187 0.235,-0.547 0.467,-1.084 0.679,-1.696 l 0.134,-0.446 c 0.034,-0.189 0.061,-0.38 0.063,-0.53 0.021,-0.327 0.011,-0.626 0.007,-0.936 -0.077,-2.437 -0.313,-4.877 -0.536,-7.37 -0.498,-4.971 -1.012,-10.107 -1.534,-15.326 -0.122,-1.301 -0.251,-2.617 -0.322,-3.909 l -0.014,-0.398 c -0.007,-0.022 -0.034,-0.04 -0.003,-0.142 -0.136,0.217 -0.056,0.084 -0.014,0.072 0.226,-0.158 0.517,-0.324 0.795,-0.48 0.567,-0.311 1.152,-0.608 1.743,-0.893 1.182,-0.568 2.39,-1.099 3.614,-1.554 0.612,-0.224 1.231,-0.435 1.844,-0.582 0.305,-0.076 0.611,-0.13 0.887,-0.149 0.133,-0.009 0.273,-0.006 0.342,0.015 0.076,0.013 -0.009,0.007 -0.02,-0.048 l 0.085,0.08 c 0.032,0.032 -0.097,-0.117 -0.036,-0.038 l 0.017,0.035 c 0.209,0.355 0.247,1.061 0.274,1.691 l 0.059,1.995 c 0.049,1.345 0.162,2.697 0.371,4.032 0.2,1.331 0.515,2.668 0.849,3.94 0.284,1.22 0.45,2.504 0.522,3.797 0.312,5.176 0.023,10.343 -0.252,15.313 -0.171,2.489 -0.339,4.936 -0.504,7.331 -0.086,1.205 -0.171,2.396 -0.255,3.573 -0.016,0.3 -0.041,0.608 -0.047,0.899 l -0.011,0.437 c -0.004,0.188 0.027,0.334 0.04,0.503 0.077,0.642 0.198,1.198 0.322,1.77 1.03,4.507 2.246,8.654 3.364,12.503 0.29,0.959 0.573,1.899 0.851,2.817 0.149,0.464 0.296,0.924 0.442,1.378 0.082,0.239 0.164,0.489 0.251,0.693 l 0.032,0.08 c -0.012,-0.023 0.032,0.075 0.032,0.075 l 0.005,0.026 0.026,0.102 c 0.02,0.05 0.047,0.162 0.072,0.272 0.396,1.726 0.691,3.447 0.976,5.034 0.558,3.191 0.994,5.983 1.32,8.283 0.327,2.3 0.537,4.113 0.626,5.333 0.057,0.642 0.052,0.986 0.061,1.3 -0.03,0.321 -0.046,0.487 -0.046,0.487 z"
         style="fill:#110f0d;fill-opacity:1;fill-rule:nonzero;stroke:none"
         id="path468"
         inkscape:connector-curvature="0" /><path
         d="m 427.6888,563.6097 c -0.054,-0.051 0.368,0.457 1.095,0.801 0.727,0.375 1.791,0.761 3.155,1.147 2.728,0.779 6.656,1.565 11.371,2.415 1.175,0.214 2.4,0.437 3.668,0.667 0.629,0.121 1.268,0.244 1.918,0.369 0.617,0.128 1.355,0.274 1.816,0.447 0.034,0.012 0.012,0.008 0.018,0.006 -0.034,-0.018 -0.064,-0.045 -0.089,-0.075 -0.04,-0.037 -0.112,-0.136 -0.138,-0.221 -0.022,-0.075 -0.054,-0.185 -0.027,-0.362 0.137,-0.384 0.182,-0.321 0.263,-0.41 0,0 -0.03,0.021 -0.043,0.03 l -0.108,0.072 c -0.175,0.125 -0.402,0.335 -0.514,0.465 -0.273,0.299 -0.498,0.6 -0.709,0.905 -0.42,0.611 -0.791,1.236 -1.154,1.872 -0.721,1.272 -1.397,2.584 -2.081,3.919 -2.707,5.344 -5.52,11.054 -8.791,16.486 -1.635,2.71 -3.382,5.355 -5.335,7.755 -1.948,2.388 -4.112,4.578 -6.593,6.019 -1.24,0.707 -2.557,1.204 -3.887,1.358 -0.665,0.09 -1.322,0.059 -1.974,-0.011 -0.699,-0.085 -1.351,-0.188 -1.831,-0.404 -0.213,-0.089 -0.393,-0.287 -0.767,-0.54 -0.349,-0.226 -0.716,-0.382 -1.057,-0.488 -0.346,-0.113 -0.683,-0.2 -1.015,-0.272 -0.167,-0.032 -0.306,-0.087 -0.594,-0.1 -0.295,-0.009 -0.572,0.074 -0.795,0.21 -0.442,0.28 -0.644,0.619 -0.833,0.893 -0.181,0.277 -0.337,0.533 -0.48,0.683 -0.125,0.158 -0.249,0.12 -0.188,0.152 0.257,0.168 0.1,0.091 0.096,-0.003 -0.035,-0.099 -0.07,-0.223 -0.097,-0.354 -0.375,-2.215 -0.346,-4.475 -0.435,-6.388 -0.054,-1.941 -0.102,-3.633 -0.141,-5.026 -0.059,-1.397 -0.105,-2.495 -0.137,-3.243 -0.051,-0.749 -0.079,-1.149 -0.079,-1.149 0,0 -0.188,1.59 -0.41,4.379 -0.103,1.395 -0.207,3.091 -0.249,5.042 -0.024,0.976 -0.036,2.015 -0.005,3.115 0.038,1.107 0.052,2.245 0.295,3.52 0.034,0.162 0.076,0.329 0.142,0.515 0.035,0.094 0.071,0.189 0.146,0.311 0.028,0.053 0.087,0.13 0.148,0.197 0.085,0.106 0.347,0.227 0.317,0.205 0.669,0.197 1.18,-0.145 1.465,-0.445 0.285,-0.305 0.448,-0.597 0.618,-0.846 0.161,-0.248 0.332,-0.453 0.446,-0.515 0.051,-0.033 0.1,-0.037 0.13,-0.037 0.038,-0.008 0.214,0.038 0.367,0.073 0.309,0.068 0.611,0.15 0.897,0.246 0.295,0.092 0.547,0.211 0.765,0.351 0.191,0.116 0.487,0.428 0.903,0.627 0.773,0.353 1.522,0.435 2.211,0.534 0.744,0.087 1.519,0.126 2.284,0.03 1.539,-0.167 3.027,-0.723 4.388,-1.486 2.72,-1.556 4.983,-3.836 7.014,-6.28 2.031,-2.459 3.83,-5.139 5.511,-7.876 3.349,-5.485 6.146,-11.255 8.848,-16.576 0.678,-1.328 1.349,-2.63 2.047,-3.863 0.349,-0.615 0.706,-1.215 1.083,-1.763 0.187,-0.274 0.384,-0.533 0.58,-0.746 0.12,-0.129 0.147,-0.156 0.246,-0.239 l 0.108,-0.072 0.062,-0.043 c 0.113,-0.117 0.204,-0.072 0.343,-0.504 0.037,-0.199 0.005,-0.329 -0.033,-0.422 -0.037,-0.103 -0.117,-0.222 -0.171,-0.276 -0.057,-0.057 -0.122,-0.109 -0.19,-0.155 -0.07,-0.04 -0.164,-0.091 -0.212,-0.108 -0.825,-0.304 -1.429,-0.387 -2.111,-0.538 -0.66,-0.121 -1.31,-0.24 -1.949,-0.357 -1.272,-0.216 -2.502,-0.425 -3.682,-0.625 -4.713,-0.792 -8.621,-1.53 -11.274,-2.255 -1.325,-0.357 -2.334,-0.717 -2.94,-1.023 -0.628,-0.317 -0.705,-0.482 -0.756,-0.525 z"
         style="fill:#110f0d;fill-opacity:1;fill-rule:nonzero;stroke:none"
         id="path472"
         inkscape:connector-curvature="0" /><path
         d="m 408.471,595.9474 c 0,0 -0.117,-0.212 -0.335,-0.608 -0.209,-0.392 -0.581,-0.915 -1.09,-1.577 -0.253,-0.332 -0.534,-0.701 -0.879,-1.089 -0.175,-0.194 -0.363,-0.393 -0.604,-0.584 -0.126,-0.093 -0.261,-0.19 -0.459,-0.259 -0.093,-0.034 -0.221,-0.057 -0.361,-0.04 -0.129,0.019 -0.158,0.033 -0.27,0.065 -1.163,0.436 -2.269,1.072 -3.545,1.713 -0.314,0.156 -0.635,0.315 -0.961,0.477 -0.143,0.068 -0.367,0.162 -0.412,0.169 0.152,-0.004 -0.137,-0.078 -0.255,-0.168 -0.305,-0.174 -0.637,-0.391 -0.899,-0.609 l -0.073,-0.067 -10e-4,-10e-4 c -0.092,-0.067 0.206,0.149 -0.208,-0.15 l -0.018,-0.004 c -0.019,-0.01 -0.193,-0.035 -0.294,0.006 -0.056,0.017 -0.109,0.045 -0.147,0.071 l -0.024,0.019 c -0.14,0.109 -0.194,0.177 -0.277,0.261 l -0.416,0.474 c -1.055,1.27 -2.083,2.646 -3.187,4.026 l -0.415,0.503 -0.18,0.201 c -0.089,0.083 -0.168,0.147 -0.221,0.182 -0.297,0.208 -0.683,0.384 -1.064,0.489 -0.191,0.054 -0.386,0.091 -0.559,0.097 -0.087,0.004 -0.162,-0.002 -0.224,-0.01 -0.02,-0.009 -0.052,-0.012 -0.058,-0.018 l -0.008,-0.003 c -0.204,-0.091 -0.051,-0.031 -0.206,-0.08 -0.325,-0.053 -0.396,0.018 -0.503,0.043 -0.104,0.038 -0.171,0.077 -0.244,0.118 -0.135,0.081 -0.246,0.165 -0.35,0.249 -0.207,0.169 -0.386,0.343 -0.558,0.522 -0.677,0.731 -1.27,1.454 -1.768,2.404 -0.06,0.129 -0.12,0.257 -0.166,0.461 -0.011,0.05 -0.021,0.107 -0.022,0.194 l 0.001,0.058 0.006,0.063 0.006,0.043 0.041,0.219 c 0.059,0.254 0.12,0.486 0.187,0.722 0.134,0.469 0.283,0.929 0.442,1.386 0.644,1.824 1.467,3.592 2.53,5.204 1.063,1.596 2.417,3.067 4.155,3.931 0.863,0.429 1.812,0.68 2.749,0.719 0.956,0.032 1.779,-0.107 2.633,-0.278 1.665,-0.357 3.159,-1.005 4.418,-1.77 1.26,-0.771 2.277,-1.668 3.105,-2.515 0.832,-0.846 1.46,-1.668 1.937,-2.368 0.476,-0.7 0.813,-1.274 1.021,-1.678 0.202,-0.407 0.31,-0.624 0.31,-0.624 l -0.526,-0.273 c 0,0 -0.444,0.821 -1.445,2.105 -1.016,1.253 -2.585,3.03 -4.971,4.4 -1.179,0.693 -2.559,1.268 -4.088,1.572 -0.741,0.146 -1.587,0.253 -2.342,0.234 -0.774,-0.029 -1.551,-0.228 -2.281,-0.586 -1.469,-0.715 -2.716,-2.02 -3.717,-3.511 -1.001,-1.5 -1.803,-3.191 -2.428,-4.937 -0.155,-0.437 -0.301,-0.877 -0.429,-1.319 -0.064,-0.218 -0.124,-0.445 -0.173,-0.651 l -0.026,-0.129 -0.007,-0.044 c -0.004,-0.031 0.002,0.018 0.002,0.018 l 0.002,0.014 c -0.003,0.028 -0.003,0.027 -10e-4,0.019 0.005,-0.027 0.037,-0.118 0.078,-0.202 0.372,-0.729 0.967,-1.491 1.556,-2.124 0.151,-0.158 0.306,-0.309 0.459,-0.435 0.076,-0.063 0.152,-0.118 0.215,-0.157 0.028,-0.015 0.061,-0.035 0.067,-0.035 0,-0.018 0.045,0.028 -0.165,-0.016 -0.098,-0.044 0.109,0.045 -0.042,-0.026 l 0.149,0.069 c 0.1,0.04 0.184,0.054 0.275,0.075 0.167,0.023 0.322,0.026 0.465,0.016 0.287,-0.019 0.544,-0.077 0.791,-0.152 0.496,-0.153 0.948,-0.361 1.384,-0.68 0.129,-0.097 0.221,-0.181 0.295,-0.253 0.133,-0.135 0.185,-0.204 0.268,-0.302 l 0.424,-0.538 c 1.087,-1.421 2.087,-2.819 3.088,-4.079 l 0.374,-0.446 c 0.054,-0.062 0.134,-0.144 0.152,-0.157 l 0.004,-0.005 c -0.026,0.02 -0.068,0.042 -0.113,0.053 -0.079,0.033 -0.232,-0.014 -0.227,-0.022 l 0.018,0.004 c -0.402,-0.295 -0.098,-0.066 -0.181,-0.124 l 0.048,0.054 c 0.055,0.055 0.102,0.096 0.147,0.132 0.355,0.279 0.684,0.48 1.048,0.68 0.092,0.049 0.183,0.096 0.286,0.141 0.047,0.021 0.104,0.046 0.188,0.073 l 0.085,0.024 c -0.015,10e-4 0.158,0.031 0.235,0.01 0.321,-0.083 0.432,-0.165 0.624,-0.25 0.333,-0.173 0.659,-0.344 0.978,-0.511 1.247,-0.665 2.403,-1.345 3.399,-1.742 0.214,-0.188 0.671,0.28 0.981,0.601 0.327,0.352 0.611,0.708 0.867,1.03 0.505,0.651 0.92,1.168 1.299,1.443 0.37,0.288 0.631,0.35 0.631,0.35"
         style="fill:#110f0d;fill-opacity:1;fill-rule:nonzero;stroke:none"
         id="path476"
         inkscape:connector-curvature="0" /><path
         d="m 405.2766,581.0078 c 0,0 -0.005,0.207 -0.013,0.57 0.005,0.393 0.026,0.936 0.07,1.555 0.087,1.251 0.258,2.899 0.449,4.545 0.381,3.29 0.844,6.566 0.844,6.566 l 0.707,-0.087 c 0,0 -0.341,-3.284 -0.599,-6.572 -0.13,-1.643 -0.239,-3.287 -0.279,-4.511 -0.02,-0.619 -0.02,-1.109 -0.014,-1.438 0.021,-0.36 0.033,-0.565 0.033,-0.565 z"
         style="fill:#110f0d;fill-opacity:1;fill-rule:nonzero;stroke:none"
         id="path480"
         inkscape:connector-curvature="0" /><path
         d="m 429.0154,599.4556 c 0,0 0.053,-0.159 0.153,-0.458 0.093,-0.301 0.241,-0.776 0.397,-1.339 0.324,-1.14 0.762,-2.767 1.257,-4.727 0.501,-1.958 1.045,-4.252 1.563,-6.729 0.258,-1.24 0.513,-2.522 0.722,-3.848 0.043,-0.338 0.098,-0.666 0.131,-1.015 l 0.038,-0.531 c 0.019,-0.169 -0.021,-0.441 -0.046,-0.653 -0.053,-0.179 -0.07,-0.183 -0.108,-0.283 -0.034,-0.082 -0.126,-0.22 -0.196,-0.321 -0.157,-0.195 -0.347,-0.343 -0.555,-0.445 -0.417,-0.197 -0.821,-0.223 -1.189,-0.226 -0.736,0.006 -1.396,0.133 -2.03,0.165 l -0.233,0.008 -0.279,0.023 c -0.166,0.015 -0.379,0.062 -0.558,0.098 -0.342,0.084 -0.672,0.183 -0.995,0.291 -1.281,0.445 -2.485,0.979 -3.616,1.598 -0.564,0.321 -1.108,0.622 -1.62,1.109 -0.31,0.352 -0.356,0.585 -0.514,0.862 -0.13,0.269 -0.259,0.535 -0.385,0.798 -0.488,1.062 -0.941,2.064 -1.176,3.114 -0.052,0.266 -0.095,0.54 -0.011,0.884 0.028,0.079 0.121,0.234 0.121,0.234 0.025,0.04 0.091,0.122 0.069,0.114 0.012,0.004 0.014,0.068 -0.002,0.119 -0.098,0.262 -0.497,0.53 -0.821,0.674 -0.168,0.081 -0.309,0.098 -0.539,0.173 -0.196,0.066 -0.376,0.147 -0.54,0.242 -0.33,0.185 -0.599,0.413 -0.797,0.653 -0.393,0.489 -0.515,0.97 -0.569,1.281 -0.048,0.317 -0.045,0.486 -0.045,0.486 0,0 0.033,-0.169 0.133,-0.464 0.093,-0.294 0.292,-0.719 0.693,-1.107 0.197,-0.195 0.454,-0.37 0.758,-0.502 0.151,-0.067 0.316,-0.121 0.489,-0.16 0.137,-0.031 0.396,-0.054 0.604,-0.145 0.402,-0.185 0.855,-0.349 1.16,-0.931 0.057,-0.162 0.096,-0.348 0.005,-0.561 -0.047,-0.126 -0.07,-0.131 -0.104,-0.194 -0.062,-0.1 -0.014,-0.058 -0.041,-0.087 -0.021,-0.127 0.002,-0.356 0.055,-0.58 0.222,-0.918 0.687,-1.918 1.184,-2.941 0.13,-0.256 0.261,-0.514 0.394,-0.776 0.131,-0.237 0.289,-0.588 0.402,-0.677 0.376,-0.345 0.925,-0.658 1.461,-0.943 1.092,-0.57 2.288,-1.073 3.514,-1.471 0.308,-0.096 0.616,-0.182 0.922,-0.251 0.292,-0.056 0.532,-0.096 0.918,-0.089 0.704,-0.025 1.376,-0.135 1.986,-0.125 0.3,0.005 0.584,0.048 0.775,0.147 0.092,0.048 0.167,0.114 0.221,0.182 0.016,0.042 0.034,0.034 0.066,0.105 0.02,0.057 0.086,0.204 0.068,0.186 -0.013,0.122 0.018,0.183 0,0.348 l -0.044,0.466 c -0.035,0.314 -0.097,0.641 -0.143,0.959 -0.228,1.284 -0.506,2.552 -0.787,3.775 -0.565,2.447 -1.152,4.721 -1.645,6.671 -0.501,1.949 -0.943,3.566 -1.267,4.688 -0.165,0.551 -0.295,0.983 -0.384,1.278 -0.101,0.298 -0.155,0.457 -0.155,0.457 z"
         style="fill:#110f0d;fill-opacity:1;fill-rule:nonzero;stroke:none"
         id="path484"
         inkscape:connector-curvature="0" /><path
         d="m 431.8826,579.3403 c -0.166,-2.264 -0.534,-5.148 -2.973,-5.314 -2.438,-0.165 -18.672,3.203 -20.991,3.258 -2.319,0.055 -0.109,-0.996 -4.638,-1.712 -1.748,-0.276 1.049,-2.816 -1.27,-4.638 -2.319,-1.822 -6.239,0.773 -7.012,1.546 -0.773,0.773 -1.878,2.595 -1.712,3.755 0.166,1.16 11.692,5.19 13.852,5.19 2.161,0 11.823,-1.215 14.805,1.215"
         style="fill:none;stroke:#110f0d;stroke-width:0.98000002;stroke-linecap:butt;stroke-linejoin:miter;stroke-miterlimit:10;stroke-dasharray:none;stroke-opacity:1"
         id="path488"
         inkscape:connector-curvature="0" /><path
         d="m 440.2024,489.6497 c 2.374,-0.497 9.97,-1.981 8.583,2.326"
         style="fill:none;stroke:#110f0d;stroke-width:0.71799999;stroke-linecap:butt;stroke-linejoin:miter;stroke-miterlimit:10;stroke-dasharray:none;stroke-opacity:1"
         id="path492"
         inkscape:connector-curvature="0" /><path
         d="m 440.6613,493.2293 c 2.043,-0.663 9.167,-2.082 8.835,-0.204 -0.331,1.877 -3.307,30.128 -8.608,34.324"
         style="fill:none;stroke:#110f0d;stroke-width:1.20000005;stroke-linecap:butt;stroke-linejoin:miter;stroke-miterlimit:10;stroke-dasharray:none;stroke-opacity:1"
         id="path496"
         inkscape:connector-curvature="0" /><path
         d="m 402.7493,575.5351 c 0,0 1.468,-0.2 3.67,-0.501 2.198,-0.327 5.127,-0.764 8.058,-1.2 2.919,-0.459 5.861,-0.934 8.033,-1.184 0.134,-0.016 0.236,-0.022 0.352,-0.03 0.127,-10e-4 0.25,-0.002 0.37,-0.003 0.116,0.003 0.231,-0.001 0.321,0.011 0.043,0.004 0.086,0.014 0.094,0.012 0.016,0.014 -0.03,-0.074 -0.002,-0.11 0.036,-0.023 -0.038,0.095 -0.101,0.149 -0.068,0.067 -0.146,0.129 -0.221,0.188 -0.153,0.118 -0.307,0.211 -0.448,0.291 -0.569,0.312 -0.921,0.432 -0.921,0.432 0,0 0.345,-0.128 0.967,-0.329 0.157,-0.052 0.331,-0.109 0.521,-0.171 0.096,-0.035 0.196,-0.074 0.301,-0.126 0.101,-0.069 0.225,-0.083 0.336,-0.323 0.063,-0.148 -0.05,-0.353 -0.131,-0.402 -0.085,-0.072 -0.155,-0.105 -0.225,-0.138 -0.139,-0.062 -0.268,-0.106 -0.403,-0.137 -0.134,-0.031 -0.278,-0.057 -0.405,-0.076 -0.149,-0.007 -0.32,-0.009 -0.462,-0.002 -1.135,0.076 -2.415,0.237 -3.799,0.4 -1.38,0.172 -2.851,0.357 -4.322,0.541 -2.937,0.404 -5.872,0.812 -8.068,1.15 -2.195,0.341 -3.659,0.568 -3.659,0.568 z"
         style="fill:#110f0d;fill-opacity:1;fill-rule:nonzero;stroke:none"
         id="path500"
         inkscape:connector-curvature="0" /><path
         d="m 421.844,575.4925 c 0,0 0.051,-0.009 0.152,-0.026 0.099,-0.015 0.247,-0.039 0.465,-0.089 0.426,-0.093 1.014,-0.246 1.77,-0.512 0.752,-0.269 1.669,-0.626 2.694,-1.202 0.511,-0.291 1.053,-0.63 1.579,-1.131 0.124,-0.142 0.26,-0.263 0.378,-0.431 0.106,-0.168 0.259,-0.291 0.318,-0.683 0.053,-0.417 0.044,-0.768 0.04,-1.145 -0.104,-2.952 -0.502,-6.44 -0.955,-10.462 -0.465,-4.016 -1.039,-8.538 -1.709,-13.466 -0.337,-2.464 -0.694,-5.028 -1.098,-7.683 -0.108,-0.665 -0.217,-1.337 -0.326,-2.013 l -0.189,-1.015 c -0.064,-0.341 -0.102,-0.673 -0.145,-1.007 -0.176,-1.331 -0.332,-2.749 -0.486,-4.155 -0.614,-5.656 -1.195,-11.633 -1.795,-17.815 -0.295,-3.092 -0.594,-6.235 -0.897,-9.417 -0.149,-1.591 -0.299,-3.192 -0.449,-4.801 l -0.014,-0.151 -0.015,-0.117 -0.012,-0.075 c -0.017,-0.098 -0.032,-0.195 -0.064,-0.323 -0.053,-0.245 -0.135,-0.462 -0.237,-0.693 -0.211,-0.454 -0.603,-0.885 -1.068,-1.113 -0.457,-0.24 -0.929,-0.322 -1.351,-0.38 -0.398,-0.057 -0.834,-0.1 -1.239,-0.138 -3.3,-0.265 -6.598,-0.221 -9.91,-0.126 -3.31,0.108 -6.627,0.311 -9.938,0.601 -3.311,0.293 -6.616,0.668 -9.894,1.181 -3.273,0.533 -6.536,1.123 -9.689,2.247 -0.785,0.296 -1.565,0.62 -2.312,1.093 -0.187,0.119 -0.371,0.245 -0.549,0.394 l -0.134,0.111 c -0.146,0.143 -0.067,0.057 -0.177,0.2 -0.153,0.235 -0.153,0.31 -0.207,0.453 -0.137,0.486 -0.166,0.9 -0.201,1.324 -0.098,1.672 -0.019,3.282 0.06,4.89 0.177,3.208 0.466,6.358 0.771,9.455 1.264,12.376 2.817,23.873 4.175,33.724 0.686,4.924 1.34,9.434 1.945,13.43 0.304,1.998 0.592,3.866 0.887,5.598 0.079,0.442 0.139,0.837 0.25,1.31 0.106,0.311 0.125,0.401 0.248,0.656 0.103,0.226 0.212,0.435 0.328,0.614 0.455,0.749 0.999,1.36 1.563,1.884 2.286,2.11 4.881,2.641 6.528,2.562 0.809,-0.02 1.41,-0.093 1.822,-0.14 0.403,-0.053 0.611,-0.081 0.611,-0.081 l -0.164,-1.189 c 0,0 -0.202,0.028 -0.593,0.081 -0.385,0.044 -0.97,0.116 -1.712,0.135 -0.716,0.03 -1.609,-0.065 -2.604,-0.391 -0.986,-0.34 -2.083,-0.925 -3.08,-1.851 -0.497,-0.46 -0.976,-1.002 -1.354,-1.623 -0.102,-0.159 -0.178,-0.309 -0.247,-0.456 -0.069,-0.107 -0.164,-0.419 -0.197,-0.501 -0.08,-0.343 -0.156,-0.794 -0.23,-1.212 -0.293,-1.713 -0.582,-3.58 -0.887,-5.574 -0.607,-3.988 -1.264,-8.495 -1.953,-13.415 -1.363,-9.84 -2.924,-21.331 -4.193,-33.676 -0.307,-3.085 -0.597,-6.226 -0.775,-9.402 -0.08,-1.583 -0.155,-3.193 -0.064,-4.749 0.027,-0.38 0.069,-0.778 0.154,-1.073 0.09,-0.19 -0.062,-0.027 0.151,-0.216 0.131,-0.112 0.284,-0.216 0.439,-0.315 0.626,-0.399 1.356,-0.709 2.095,-0.986 2.997,-1.074 6.239,-1.671 9.471,-2.198 3.243,-0.51 6.526,-0.885 9.816,-1.178 3.29,-0.291 6.589,-0.496 9.876,-0.605 3.283,-0.097 6.571,-0.14 9.777,0.115 0.781,0.088 1.657,0.125 2.176,0.395 0.528,0.255 0.754,0.846 0.823,1.596 0.152,1.61 0.303,3.211 0.453,4.802 0.305,3.183 0.607,6.327 0.904,9.419 0.605,6.184 1.19,12.161 1.81,17.828 0.157,1.424 0.308,2.797 0.496,4.209 0.046,0.352 0.089,0.705 0.152,1.038 l 0.186,1.001 c 0.109,0.668 0.217,1.33 0.324,1.987 0.404,2.642 0.763,5.205 1.101,7.665 0.673,4.92 1.249,9.437 1.717,13.443 0.454,4.001 0.854,7.516 0.955,10.361 0.007,0.347 0.006,0.704 -0.027,0.968 0,0 0,10e-4 0.008,0.005 l -0.021,0.056 -0.012,0.029 c 0.055,-0.111 0.007,-0.019 0.016,-0.039 l -0.112,0.16 c -0.071,0.107 -0.184,0.205 -0.27,0.308 -0.409,0.393 -0.899,0.709 -1.365,0.972 -0.939,0.53 -1.814,0.873 -2.522,1.127 -0.709,0.25 -1.277,0.397 -1.634,0.476 -0.174,0.041 -0.325,0.066 -0.427,0.083 -0.101,0.017 -0.151,0.025 -0.151,0.025 z"
         style="fill:#110f0d;fill-opacity:1;fill-rule:nonzero;stroke:none"
         id="path504"
         inkscape:connector-curvature="0" /><path
         d="m 397.5775,578.5495 c -6.214,0.619 -10.563,0.75 -13.102,0.787 -2.741,0.04 -6.625,-0.216 -7.293,-1.531 -0.688,-1.354 -2.546,-35.488 -3.393,-39.607 -0.846,-4.12 -4.552,-31.437 -4.238,-33.201 0.314,-1.764 5.23,-2.1 5.23,-2.1"
         style="fill:none;stroke:#110f0d;stroke-width:1.20000005;stroke-linecap:butt;stroke-linejoin:miter;stroke-miterlimit:10;stroke-dasharray:none;stroke-opacity:1"
         id="path508"
         inkscape:connector-curvature="0" /><path
         d="m 386.5271,575.079 c 0,0 -0.083,0.043 -0.227,0.119 -0.153,0.072 -0.371,0.174 -0.633,0.297 -0.534,0.243 -1.255,0.559 -1.964,0.91 -0.353,0.178 -0.705,0.361 -1.019,0.575 -0.15,0.117 -0.32,0.199 -0.401,0.432 -0.032,0.145 0.102,0.242 0.176,0.262 0.083,0.031 0.162,0.051 0.236,0.059 0.3,0.039 0.545,0.028 0.717,0.025 0.172,-0.007 0.27,-0.011 0.27,-0.011 0,0 -0.098,-0.007 -0.269,-0.02 -0.169,-0.016 -0.417,-0.035 -0.695,-0.104 -0.125,-0.026 -0.317,-0.116 -0.273,-0.174 0.038,-0.09 0.208,-0.198 0.357,-0.276 0.316,-0.165 0.679,-0.305 1.043,-0.438 0.732,-0.264 1.479,-0.494 2.04,-0.676 0.283,-0.094 0.519,-0.173 0.684,-0.229 0.168,-0.065 0.264,-0.102 0.264,-0.102 z"
         style="fill:#110f0d;fill-opacity:1;fill-rule:nonzero;stroke:none"
         id="path512"
         inkscape:connector-curvature="0" /><path
         d="m 378.5975,499.6581 0.453,-12.616 c 18.533,-7.691 36.82,-0.587 36.82,-0.587 l 0.166,9.465"
         style="fill:none;stroke:#110f0d;stroke-width:1.20000005;stroke-linecap:butt;stroke-linejoin:miter;stroke-miterlimit:10;stroke-dasharray:none;stroke-opacity:1"
         id="path516"
         inkscape:connector-curvature="0" /><path
         d="m 415.7381,580.8397 -3.752,5.114 4.509,-4.461 z"
         style="fill:#110f0d;fill-opacity:1;fill-rule:nonzero;stroke:none"
         id="path520"
         inkscape:connector-curvature="0" /><path
         d="m 424.8994,538.4321 c 1.064,-3.252 2.61,-8.847 3.549,-9.528"
         style="fill:none;stroke:#110f0d;stroke-width:0.866;stroke-linecap:butt;stroke-linejoin:miter;stroke-miterlimit:10;stroke-dasharray:none;stroke-opacity:1"
         id="path524"
         inkscape:connector-curvature="0" /></g><g
       id="g3818"
       transform="matrix(0.88688313,0,0,0.88688313,180.25471,-418.05006)"><path
         d="m 692.76,498.6502 c 0,0 0.147,-0.141 0.399,-0.422 0.247,-0.291 0.642,-0.674 1.108,-1.162 0.984,-0.949 2.423,-2.309 4.508,-3.405 1.039,-0.541 2.221,-1.036 3.516,-1.377 1.303,-0.309 2.767,-0.609 4.22,-1.039 0.733,-0.218 1.476,-0.451 2.221,-0.807 0.369,-0.189 0.752,-0.379 1.105,-0.798 0.175,-0.198 0.323,-0.601 0.209,-0.948 -0.103,-0.336 -0.306,-0.536 -0.484,-0.689 -0.37,-0.312 -0.751,-0.495 -1.133,-0.67 -0.348,-0.176 -0.851,-0.332 -1.252,-0.374 -0.809,-0.131 -1.607,-0.22 -2.413,-0.302 -1.62,-0.139 -3.196,-0.306 -4.882,-0.163 -1.562,0.205 -3.086,0.341 -4.585,0.444 -2.986,0.199 -5.785,0.275 -8.176,0.261 -1.19,0.006 -2.285,-0.076 -3.292,-0.059 -1.034,0.051 -2.025,0.19 -2.723,0.894 -0.332,0.353 -0.469,0.788 -0.513,1.117 -0.048,0.339 -0.027,0.599 -0.017,0.797 0.022,0.352 0.034,0.54 0.034,0.54 h 1.04 c 0,0 -0.008,-0.261 -0.04,-0.611 -0.026,-0.355 -0.048,-0.822 0.245,-1.146 0.294,-0.346 1.1,-0.555 1.991,-0.587 0.947,-0.027 2.055,0.054 3.27,0.044 2.42,0.006 5.235,-0.08 8.248,-0.292 1.501,-0.107 3.073,-0.253 4.64,-0.465 1.463,-0.132 3.101,0.014 4.67,0.149 0.79,0.077 1.586,0.163 2.355,0.284 0.396,0.051 0.66,0.13 1.028,0.303 0.341,0.15 0.678,0.325 0.912,0.525 0.123,0.095 0.195,0.204 0.205,0.247 0.008,0.035 0.019,0.049 -0.054,0.15 -0.15,0.187 -0.465,0.388 -0.784,0.541 -0.651,0.315 -1.37,0.549 -2.076,0.761 -1.43,0.428 -2.816,0.715 -4.192,1.048 -1.37,0.369 -2.604,0.893 -3.694,1.468 -1.089,0.578 -2.021,1.228 -2.793,1.866 -0.78,0.631 -1.373,1.278 -1.827,1.834 -0.447,0.577 -0.753,1.046 -0.926,1.38 -0.191,0.325 -0.28,0.509 -0.28,0.509 z"
         style="fill:#231f20;fill-opacity:1;fill-rule:nonzero;stroke:none"
         id="path630"
         inkscape:connector-curvature="0" /><path
         d="m 574.8088,571.92 c 0,0 0.36,-0.766 0.505,-2.234 0.162,-1.455 0.45,-3.604 0.901,-6.328 0.884,-5.453 2.544,-13.183 4.138,-22.554 0.789,-4.69 1.488,-9.798 1.677,-15.273 0.154,-5.459 -0.189,-11.236 -1.117,-17.116 -0.448,-2.942 -1.026,-5.91 -1.572,-8.906 -0.534,-2.991 -1.068,-6.042 -0.81,-9.061 0.141,-1.491 0.593,-2.948 1.581,-4.007 0.972,-1.065 2.407,-1.66 3.873,-2.114 2.966,-0.877 6.098,-1.338 9.22,-1.706 6.258,-0.707 12.578,-0.947 18.785,-0.939 6.211,0.03 12.319,0.319 18.136,1.302 5.814,0.962 11.402,2.297 16.408,4.252 1.245,0.497 2.452,1.039 3.57,1.669 1.1,0.63 2.183,1.356 2.824,2.256 0.154,0.223 0.269,0.453 0.328,0.676 0.025,0.117 0.042,0.206 0.044,0.341 l 0.01,0.472 c 0.006,0.627 10e-4,1.218 -0.02,1.838 -0.032,1.223 -0.098,2.427 -0.173,3.605 -0.628,9.436 -1.939,17.233 -3.053,22.627 -0.28,1.35 -0.53,2.555 -0.747,3.603 -0.203,1.053 -0.376,1.948 -0.516,2.674 -0.143,0.727 -0.272,1.278 -0.248,1.681 0.007,0.398 0.087,0.624 0.087,0.624 0,0 0.179,-0.155 0.379,-0.499 0.217,-0.339 0.374,-0.887 0.605,-1.596 0.472,-1.414 1.065,-3.521 1.614,-6.245 1.116,-5.442 2.417,-13.287 3.031,-22.797 0.074,-1.189 0.138,-2.403 0.168,-3.647 0.02,-0.614 0.025,-1.269 0.017,-1.899 l -0.012,-0.472 c -10e-4,-0.181 -0.033,-0.406 -0.081,-0.597 -0.104,-0.391 -0.286,-0.734 -0.495,-1.037 -0.868,-1.188 -2.036,-1.912 -3.207,-2.593 -1.185,-0.664 -2.432,-1.22 -3.711,-1.727 -5.134,-1.991 -10.768,-3.318 -16.649,-4.28 -5.89,-0.982 -12.07,-1.259 -18.306,-1.275 -6.245,0.002 -12.59,0.27 -18.903,1.002 -3.154,0.384 -6.308,0.852 -9.388,1.773 -0.743,0.241 -1.578,0.528 -2.264,0.892 -0.752,0.382 -1.439,0.874 -2.019,1.498 -1.171,1.263 -1.667,2.967 -1.809,4.552 -0.262,3.21 0.307,6.316 0.849,9.314 0.559,3.007 1.143,5.957 1.597,8.878 0.94,5.835 1.298,11.55 1.163,16.959 -0.075,1.349 -0.108,2.676 -0.215,3.99 -0.129,1.309 -0.209,2.624 -0.374,3.871 -0.304,2.529 -0.708,4.963 -1.108,7.296 -0.812,4.667 -1.679,8.927 -2.406,12.714 -0.733,3.785 -1.354,7.093 -1.813,9.829 -0.457,2.737 -0.749,4.899 -0.915,6.392 -0.159,1.481 0.083,2.292 0.083,2.292 z"
         style="fill:#110f0d;fill-opacity:1;fill-rule:nonzero;stroke:none"
         id="path634"
         inkscape:connector-curvature="0" /><path
         d="m 586.3909,579.9048 -3.012,1.128 c -0.754,0.272 -1.52,0.5 -2.115,0.588 -0.593,0.095 -0.998,0.089 -0.998,0.089 0,0 0.402,0.039 1.008,-0.007 0.606,-0.039 1.404,-0.207 2.183,-0.419 1.549,-0.439 3.099,-0.878 3.099,-0.878 z"
         style="fill:#110f0d;fill-opacity:1;fill-rule:nonzero;stroke:none"
         id="path638"
         inkscape:connector-curvature="0" /><path
         d="m 641.5261,529.2551 c 0,0 0.465,0.053 1.279,0.147 0.813,0.091 1.995,0.186 3.394,0.291 2.804,0.236 6.545,0.373 10.261,0.705 3.715,0.275 7.428,0.696 10.079,1.43 0.674,0.153 1.247,0.388 1.769,0.567 0.53,0.162 0.93,0.391 1.331,0.486 0.373,0.131 0.641,0.28 0.867,0.347 0.215,0.078 0.349,0.111 0.349,0.111 0,0 -0.051,-0.111 -0.182,-0.303 -0.134,-0.18 -0.327,-0.499 -0.665,-0.77 -0.341,-0.247 -0.778,-0.583 -1.328,-0.793 -0.55,-0.209 -1.173,-0.459 -1.868,-0.628 -0.689,-0.209 -1.444,-0.372 -2.244,-0.534 -0.798,-0.176 -1.646,-0.287 -2.521,-0.436 -0.877,-0.107 -1.782,-0.25 -2.705,-0.334 -0.921,-0.099 -1.857,-0.199 -2.795,-0.261 -3.75,-0.256 -7.493,-0.418 -10.296,-0.504 -2.796,-0.103 -4.664,-0.221 -4.664,-0.221 z"
         style="fill:#110f0d;fill-opacity:1;fill-rule:nonzero;stroke:none"
         id="path642"
         inkscape:connector-curvature="0" /><path
         d="m 579.6064,505.4144 c -0.831,-0.031 -1.976,0 -1.976,0 l -0.69,-4.534 2.483,-0.282"
         style="fill:#110f0d;fill-opacity:1;fill-rule:nonzero;stroke:none"
         id="path646"
         inkscape:connector-curvature="0" /><path
         d="m 588.8557,576.7668 c 0,0 1.612,-0.842 3.329,-1.475 0.855,-0.322 1.732,-0.587 2.403,-0.731 0.672,-0.144 1.133,-0.182 1.133,-0.182 0,0 -0.461,-0.019 -1.154,0.043 -0.693,0.062 -1.61,0.22 -2.513,0.439 -1.811,0.427 -3.566,1.084 -3.566,1.084 z"
         style="fill:#231f20;fill-opacity:1;fill-rule:nonzero;stroke:none"
         id="path650"
         inkscape:connector-curvature="0" /><path
         d="m 604.1917,575.6113 c -0.251,0.289 -0.428,0.633 -0.637,0.943 -0.098,0.157 -0.199,0.312 -0.313,0.443 -0.102,0.131 -0.26,0.232 -0.329,0.176 -0.311,-0.044 -0.683,-0.17 -1.045,-0.275 -0.376,-0.094 -0.731,-0.241 -1.246,-0.168 -0.127,0.024 -0.295,0.106 -0.398,0.22 -0.126,0.104 -0.202,0.407 -0.131,0.557 0.11,0.308 0.26,0.43 0.392,0.59 0.26,0.289 0.576,0.552 0.785,0.804 0.421,0.476 0.55,1.166 0.563,1.88 0.012,1.44 -0.204,2.966 -0.261,4.486 -0.046,0.769 -0.019,1.524 -0.047,2.265 -0.027,0.707 -0.119,1.45 -0.241,2.17 -0.245,1.448 -0.64,2.879 -1.134,4.272 -0.247,0.696 -0.523,1.382 -0.811,2.06 -0.151,0.339 -0.304,0.732 -0.424,1.103 l -0.341,1.098 c -0.215,0.704 -0.421,1.5 -0.661,2.058 -0.013,0.088 -0.276,0.243 -0.59,0.366 -0.305,0.119 -0.645,0.208 -0.99,0.279 -1.394,0.271 -2.878,0.249 -4.318,0.056 -2.894,-0.398 -5.675,-1.58 -8.003,-3.363 -0.32,-0.239 -0.529,-0.391 -0.61,-0.615 -0.116,-0.256 -0.174,-0.598 -0.208,-0.944 -0.068,-0.704 -0.026,-1.447 -0.069,-2.244 l -0.058,-1.122 0.047,-1.068 c 0.071,-0.728 0.184,-1.455 0.337,-2.178 0.632,-2.894 1.78,-5.688 3.122,-8.353 0.683,-1.33 1.415,-2.638 2.257,-3.869 l 0.157,-0.231 0.079,-0.116 c 0.064,-0.114 0.025,-0.031 0.068,-0.134 0.034,-0.094 0.038,-0.187 0.025,-0.251 -0.067,-0.289 -0.211,-0.359 -0.3,-0.443 -0.099,-0.074 -0.192,-0.129 -0.283,-0.18 -0.361,-0.194 -0.707,-0.333 -1.021,-0.499 -0.154,-0.081 -0.306,-0.17 -0.403,-0.258 -0.048,-0.041 -0.081,-0.086 -0.082,-0.093 0.002,-0.009 0.003,0.039 0.007,0.025 -0.029,0.079 0.037,-0.109 0.033,-0.097 l 0.005,-0.017 0.005,-0.017 c 0.008,-0.027 0.014,-0.144 -0.023,-0.225 -0.103,-0.201 -0.175,-0.195 -0.228,-0.226 -0.073,-0.03 -0.131,-0.035 -0.145,-0.034 -0.13,-0.007 -0.178,0.009 -0.244,0.019 -0.121,0.024 -0.217,0.054 -0.316,0.084 -0.196,0.062 -0.375,0.129 -0.562,0.204 l -0.005,0.002 -0.083,0.036 -0.059,0.071 c -3.404,4.071 -6.797,8.143 -10.074,12.328 l -1.208,1.593 c -0.412,0.536 -0.753,1.134 -1.126,1.643 -0.36,0.497 -0.811,1.056 -1.213,1.141 -0.588,0.14 -1.212,0.124 -1.842,0.052 -1.259,-0.157 -2.506,-0.561 -3.669,-1.102 -1.152,-0.553 -2.27,-1.258 -3.057,-2.2 -0.373,-0.463 -0.682,-1.029 -0.662,-1.532 0.024,-0.108 0.172,-0.454 0.335,-0.685 0.168,-0.256 0.366,-0.507 0.569,-0.755 0.83,-0.992 1.791,-1.895 2.708,-2.874 1.826,-2.003 3.326,-4.183 5.024,-6.196 0.842,-1.019 1.724,-1.968 2.655,-2.922 0.928,-0.996 1.749,-2.042 2.567,-3.091 0.817,-1.042 1.609,-2.117 2.465,-3.077 0.883,-0.936 1.869,-1.825 2.841,-2.744 l -0.118,0.081 c 1.329,-0.658 2.548,-1.393 3.775,-2.155 1.224,-0.76 2.421,-1.555 3.611,-2.361 2.375,-1.618 4.685,-3.322 6.977,-5.05 2.279,-1.743 4.538,-3.513 6.756,-5.331 2.229,-1.806 4.422,-3.654 6.593,-5.526 l 3.249,-2.811 c 1.08,-0.918 2.2,-1.809 3.325,-2.686 2.261,-1.746 4.546,-3.469 6.844,-5.173 l 6.938,-5.061 c 2.306,-1.699 4.72,-3.241 6.839,-5.209 -2.575,1.315 -4.853,3.057 -7.217,4.676 l -7.018,4.966 c -2.328,1.672 -4.645,3.362 -6.912,5.124 -1.135,0.881 -2.258,1.771 -3.364,2.706 l -3.254,2.803 c -2.174,1.86 -4.36,3.705 -6.579,5.509 -2.208,1.816 -4.458,3.582 -6.726,5.321 -2.279,1.724 -4.578,3.423 -6.935,5.033 -1.181,0.802 -2.368,1.593 -3.577,2.346 -1.203,0.75 -2.443,1.494 -3.68,2.109 l -0.068,0.034 -0.05,0.047 c -0.952,0.904 -1.939,1.791 -2.874,2.784 -0.908,1.021 -1.687,2.087 -2.504,3.13 -0.81,1.043 -1.629,2.085 -2.508,3.029 -0.919,0.945 -1.843,1.939 -2.688,2.967 -1.717,2.042 -3.235,4.242 -4.984,6.163 -0.892,0.956 -1.868,1.873 -2.74,2.916 -0.216,0.265 -0.43,0.534 -0.625,0.832 -0.189,0.326 -0.381,0.57 -0.466,1.12 -0.005,0.839 0.411,1.498 0.847,2.057 0.926,1.097 2.118,1.827 3.343,2.418 1.237,0.572 2.544,0.998 3.919,1.169 0.682,0.078 1.406,0.1 2.111,-0.068 0.464,-0.097 0.769,-0.394 1.023,-0.641 0.254,-0.262 0.466,-0.538 0.666,-0.816 0.409,-0.562 0.724,-1.122 1.12,-1.638 l 1.193,-1.577 c 3.256,-4.168 6.648,-8.247 10.041,-12.315 l -0.142,0.107 0.004,-0.002 c 0.159,-0.073 0.33,-0.145 0.492,-0.205 0.079,-0.028 0.163,-0.057 0.227,-0.072 0.026,-0.009 0.071,-0.011 0.036,-0.013 0.009,-10e-4 -0.026,0 -0.077,-0.02 -0.022,-0.009 -0.041,-0.022 -0.058,-0.036 -0.019,-0.012 -0.094,-0.075 -0.118,-0.151 -0.033,-0.07 -0.017,-0.176 -0.01,-0.192 l -0.004,0.017 -0.004,0.017 c -0.007,0.023 0.055,-0.154 0.022,-0.063 -0.084,0.153 -0.089,0.409 -0.008,0.572 0.076,0.166 0.177,0.262 0.268,0.345 0.188,0.161 0.369,0.256 0.548,0.351 l 1.015,0.484 c 0.074,0.04 0.143,0.081 0.196,0.119 0.055,0.03 0.069,0.094 0.035,-0.005 -10e-4,-0.016 -0.006,-0.064 0.017,-0.111 0.035,-0.056 -0.036,0.065 0.009,-0.007 l -0.079,0.119 -0.159,0.238 c -0.85,1.266 -1.634,2.57 -2.343,3.915 -1.406,2.692 -2.618,5.507 -3.321,8.503 -0.17,0.751 -0.301,1.512 -0.388,2.284 -0.031,0.393 -0.053,0.798 -0.068,1.191 l 0.042,1.136 c 0.03,0.71 -0.025,1.478 0.038,2.277 0.036,0.402 0.086,0.819 0.27,1.257 0.194,0.504 0.633,0.805 0.907,1.017 2.442,1.906 5.38,3.191 8.463,3.642 1.541,0.219 3.115,0.264 4.688,-0.024 0.394,-0.078 0.788,-0.175 1.186,-0.325 0.199,-0.073 0.4,-0.166 0.606,-0.29 0.093,-0.053 0.277,-0.195 0.33,-0.251 l 0.05,-0.05 0.059,-0.061 0.041,-0.057 c 0.058,-0.081 0.102,-0.16 0.122,-0.207 0.361,-0.826 0.515,-1.502 0.753,-2.234 l 0.339,-1.06 c 0.115,-0.345 0.239,-0.654 0.398,-1.002 0.315,-0.705 0.583,-1.426 0.829,-2.154 0.49,-1.457 0.877,-2.951 1.111,-4.481 0.115,-0.769 0.199,-1.527 0.217,-2.328 l -0.01,-2.257 c -0.014,-1.495 0.137,-2.977 0.055,-4.553 -0.051,-0.771 -0.228,-1.666 -0.852,-2.314 -0.293,-0.311 -0.574,-0.517 -0.83,-0.778 -0.12,-0.114 -0.249,-0.268 -0.264,-0.319 0.004,-0.031 -0.019,0.065 -0.015,0.033 0.025,-0.026 0.032,-0.031 0.088,-0.05 0.234,-0.063 0.632,0.007 0.983,0.08 0.371,0.065 0.72,0.192 1.166,0.182 0.333,0 0.475,-0.223 0.588,-0.384 0.11,-0.173 0.193,-0.349 0.269,-0.525 0.142,-0.357 0.261,-0.71 0.424,-1.053"
         style="fill:#110f0d;fill-opacity:1;fill-rule:nonzero;stroke:none"
         id="path654"
         inkscape:connector-curvature="0" /><path
         d="m 627.8616,549.3653 c 0,0 -0.092,0.063 -0.265,0.182 -0.169,0.109 -0.434,0.309 -0.755,0.561 -0.627,0.505 -1.461,1.284 -2.367,2.293 -0.923,0.997 -1.85,2.275 -2.897,3.568 -1.038,1.314 -2.146,2.715 -3.253,4.116 -0.556,0.7 -1.081,1.422 -1.679,2.072 -0.54,0.694 -1.073,1.377 -1.587,2.038 -1.032,1.321 -1.951,2.588 -2.737,3.678 -0.779,1.095 -1.429,2.013 -1.796,2.724 -0.185,0.353 -0.298,0.66 -0.377,0.868 -0.051,0.244 0.158,0.44 0.158,0.44 0,0 0.303,-0.007 0.429,-0.141 0.125,-0.161 0.308,-0.396 0.542,-0.695 0.464,-0.609 1.074,-1.534 1.856,-2.614 0.787,-1.079 1.705,-2.338 2.688,-3.686 0.496,-0.673 1.008,-1.368 1.528,-2.075 0.47,-0.745 1.029,-1.44 1.567,-2.151 1.09,-1.412 2.179,-2.824 3.2,-4.148 1.035,-1.326 1.961,-2.568 2.87,-3.529 0.891,-0.976 1.722,-1.694 2.329,-2.145 0.587,-0.431 0.998,-0.651 0.998,-0.651 z"
         style="fill:#110f0d;fill-opacity:1;fill-rule:nonzero;stroke:none"
         id="path658"
         inkscape:connector-curvature="0" /><path
         d="m 562.2556,587.5099 c -0.772,0.92 -1.498,1.846 -2.072,2.96 -0.141,0.28 -0.267,0.581 -0.341,0.941 -0.013,0.096 -0.029,0.187 -0.035,0.287 0.005,0.113 0.016,0.227 0.031,0.339 0.107,0.271 0.083,0.277 0.22,0.494 0.452,0.68 0.946,0.975 1.472,1.323 1.049,0.636 2.154,1.079 3.3,1.439 0.292,0.084 0.577,0.167 0.895,0.223 0.143,0.027 0.355,0.06 0.53,0.04 0.143,-0.012 0.29,-0.026 0.444,-0.047 l 1.756,-0.245 c 4.617,-0.689 9.218,-1.432 13.824,-2.173 h 0.003 l 0.192,-0.032 0.037,-0.183 1.637,-7.927 v -0.002 l 0.089,-0.428 -0.34,0.275 c -0.662,0.534 -1.338,1.056 -2.026,1.557 -0.688,0.498 -1.389,0.99 -2.125,1.385 -0.183,0.095 -0.372,0.184 -0.553,0.239 -0.214,0.066 -0.387,0.088 -0.602,0.119 -0.414,0.056 -0.837,0.084 -1.26,0.104 -0.847,0.037 -1.701,0.039 -2.55,0.02 l -0.009,0.415 c 0.861,0.01 1.717,-10e-4 2.578,-0.047 0.43,-0.025 0.861,-0.057 1.294,-0.119 0.206,-0.031 0.458,-0.074 0.652,-0.137 0.227,-0.072 0.425,-0.17 0.62,-0.273 0.767,-0.423 1.464,-0.925 2.154,-1.435 0.69,-0.512 1.362,-1.042 2.025,-1.588 l -0.251,-0.154 v 0.002 l -1.876,7.874 0.229,-0.215 h -0.003 c -4.613,0.667 -9.23,1.338 -13.846,1.953 l -1.711,0.211 c -0.135,0.018 -0.279,0.03 -0.426,0.039 -0.116,0.011 -0.196,-0.007 -0.337,-0.034 -0.256,-0.049 -0.531,-0.132 -0.798,-0.214 -1.07,-0.353 -2.138,-0.805 -3.074,-1.395 -0.448,-0.277 -0.927,-0.681 -1.122,-0.978 -0.052,-0.011 -0.129,-0.306 -0.142,-0.297 0.004,-0.034 0.002,-0.065 -0.004,-0.097 l 0.023,-0.145 c 0.047,-0.21 0.144,-0.454 0.27,-0.691 0.508,-0.954 1.239,-1.874 1.978,-2.722 z"
         style="fill:#110f0d;fill-opacity:1;fill-rule:nonzero;stroke:none"
         id="path662"
         inkscape:connector-curvature="0" /><path
         d="m 601.4138,577.2693 c 0,0 0.162,0.122 0.466,0.351 0.279,0.235 0.699,0.583 1.183,1.09 0.981,0.997 2.228,2.583 3.578,4.597 1.378,1.998 2.831,4.431 4.612,6.949 0.453,0.626 0.931,1.256 1.491,1.859 0.285,0.298 0.584,0.593 0.95,0.854 0.352,0.268 0.843,0.504 1.327,0.55 0.926,0.1 1.77,-0.057 2.594,-0.269 0.82,-0.22 1.614,-0.52 2.377,-0.903 0.759,-0.387 1.5,-0.836 2.144,-1.498 0.314,-0.335 0.621,-0.744 0.755,-1.308 0.063,-0.269 0.022,-0.656 -0.011,-0.806 -0.032,-0.202 -0.067,-0.432 -0.154,-0.687 -0.195,-0.531 -0.517,-0.87 -0.78,-1.179 -0.278,-0.314 -0.561,-0.594 -0.754,-0.856 -0.46,-0.597 -0.898,-1.232 -1.319,-1.857 -1.683,-2.513 -3.144,-4.947 -4.382,-7.03 -1.217,-2.097 -2.181,-3.873 -2.766,-5.138 -0.292,-0.634 -0.482,-1.139 -0.578,-1.477 -0.089,-0.338 -0.09,-0.481 -0.09,-0.481 h -0.75 c 0,0 -0.006,0.267 0.085,0.671 0.093,0.4 0.272,0.952 0.543,1.625 0.534,1.348 1.434,3.188 2.625,5.329 1.178,2.149 2.645,4.595 4.34,7.153 0.428,0.639 0.865,1.283 1.359,1.931 0.275,0.368 0.56,0.64 0.809,0.916 0.256,0.283 0.481,0.554 0.559,0.782 0.077,0.228 0.174,0.762 0.135,0.874 -0.05,0.226 -0.218,0.507 -0.454,0.758 -0.48,0.509 -1.14,0.935 -1.821,1.288 -1.355,0.681 -2.956,1.216 -4.334,1.113 -0.319,-0.034 -0.571,-0.145 -0.853,-0.351 -0.283,-0.195 -0.553,-0.452 -0.811,-0.717 -0.52,-0.535 -0.995,-1.13 -1.449,-1.727 -1.796,-2.416 -3.314,-4.841 -4.756,-6.819 -1.438,-1.984 -2.768,-3.557 -3.82,-4.55 -0.517,-0.503 -0.972,-0.855 -1.285,-1.098 -0.313,-0.218 -0.48,-0.334 -0.48,-0.334 z"
         style="fill:#110f0d;fill-opacity:1;fill-rule:nonzero;stroke:none"
         id="path666"
         inkscape:connector-curvature="0" /><path
         d="m 600.0266,596.142 c 5.518,1.464 11.044,2.886 16.625,4.119 1.394,0.31 2.797,0.591 4.21,0.839 l 0.534,0.085 0.266,0.042 0.134,0.021 0.066,0.01 0.033,0.006 0.017,0.002 0.008,0.002 c 0.036,10e-4 -0.068,-10e-4 0.083,0.002 0.103,-0.019 0.144,0.01 0.299,-0.05 0.139,-0.053 0.313,-0.141 0.37,-0.212 0.179,-0.146 0.293,-0.308 0.417,-0.468 0.424,-0.653 0.688,-1.336 0.925,-2.027 0.225,-0.697 0.419,-1.389 0.538,-2.132 0.088,-0.376 0,-0.852 -0.106,-1.196 -0.095,-0.358 -0.209,-0.699 -0.322,-1.043 -0.465,-1.363 -0.981,-2.693 -1.514,-4.024 l -10e-4,-0.004 -0.162,-0.391 -0.362,0.207 -5.375,3.064 -0.003,0.002 0.179,-0.035 -15.414,-2.105 -0.122,0.993 15.464,1.7 0.097,0.011 0.083,-0.046 0.003,-0.002 5.448,-2.932 -0.524,-0.184 10e-4,0.003 c 0.535,1.314 1.06,2.641 1.524,3.974 0.112,0.333 0.226,0.669 0.316,0.999 0.094,0.338 0.162,0.578 0.095,0.91 -0.102,0.666 -0.287,1.355 -0.497,2.015 -0.219,0.657 -0.477,1.315 -0.829,1.863 -0.094,0.122 -0.187,0.252 -0.287,0.331 -0.061,0.068 -0.066,0.035 -0.079,0.073 0.002,0.037 -0.152,0.026 -0.221,0.041 0.145,0.004 0.036,0 0.066,10e-4 l -0.008,-10e-4 -0.017,-0.003 -0.032,-0.005 -0.066,-0.01 -0.131,-0.02 -0.262,-0.039 -0.524,-0.08 c -1.397,-0.236 -2.794,-0.506 -4.185,-0.806 -5.569,-1.193 -11.105,-2.579 -16.624,-4.006 z"
         style="fill:#110f0d;fill-opacity:1;fill-rule:nonzero;stroke:none"
         id="path670"
         inkscape:connector-curvature="0" /><path
         d="m 685.8127,556.1578 c 0,0 0.62,0.035 1.705,0.053 1.085,0.005 2.637,0.041 4.498,-0.032 1.86,-0.077 4.034,-0.162 6.358,-0.457 1.126,-0.11 2.528,-0.407 3.549,-1.329 0.499,-0.47 0.972,-0.965 1.07,-1.84 0.059,-0.799 -0.158,-1.454 -0.434,-2.064 -0.576,-1.204 -1.399,-2.194 -2.257,-3.106 -0.869,-0.904 -1.813,-1.699 -2.849,-2.336 -0.256,-0.163 -0.53,-0.304 -0.811,-0.434 -0.05,-0.021 -0.035,-0.023 -0.138,-0.06 l -0.114,-0.03 c -0.101,-0.024 -0.2,-0.041 -0.265,-0.049 l -0.437,-0.048 c -0.569,-0.052 -1.118,-0.081 -1.657,-0.1 -0.547,-0.004 -1.04,-0.058 -1.627,0.05 -0.491,0.109 -0.965,0.215 -1.421,0.316 -1.818,0.422 -3.295,0.91 -4.33,1.236 -1.032,0.34 -1.609,0.572 -1.609,0.572 0,0 0.604,-0.14 1.661,-0.384 1.053,-0.248 2.573,-0.542 4.392,-0.873 0.457,-0.075 0.932,-0.153 1.424,-0.234 0.403,-0.059 0.953,0.008 1.465,0.045 0.524,0.048 1.064,0.107 1.605,0.186 l 0.398,0.066 0.152,0.029 c 0.014,-10e-4 0.061,0.018 0.091,0.027 -0.035,-0.016 0.04,0.022 0.055,0.03 0.234,0.117 0.468,0.245 0.698,0.401 0.932,0.599 1.801,1.404 2.618,2.256 0.801,0.862 1.565,1.82 2.049,2.86 0.25,0.505 0.392,1.079 0.368,1.51 0.031,0.385 -0.353,0.921 -0.739,1.254 -0.398,0.358 -0.88,0.623 -1.394,0.812 -0.513,0.19 -1.051,0.281 -1.637,0.367 -2.274,0.353 -4.424,0.603 -6.27,0.767 -1.849,0.165 -3.39,0.302 -4.468,0.398 -1.081,0.09 -1.699,0.141 -1.699,0.141"
         style="fill:#231f20;fill-opacity:1;fill-rule:nonzero;stroke:none"
         id="path674"
         inkscape:connector-curvature="0" /><path
         d="m 615.1194,538.4891 c 0,0 1.56,1.663 4.291,4.573 0.682,0.728 1.438,1.533 2.261,2.41 0.824,0.898 1.785,1.816 2.928,2.689 1.136,0.868 2.463,1.621 3.804,2.381 1.347,0.755 2.642,1.668 3.883,2.818 1.271,1.11 2.606,2.448 4.499,3.138 0.235,0.092 0.47,0.144 0.731,0.212 l 0.687,0.135 c 0.473,0.071 0.967,0.154 1.441,0.2 0.958,0.117 1.929,0.187 2.912,0.253 3.932,0.244 8.071,0.291 12.352,0.295 8.562,-0.026 17.685,-0.253 26.805,-0.75 1.14,-0.067 2.28,-0.14 3.424,-0.244 0.301,-0.036 0.541,-0.037 0.898,-0.116 0.12,-0.022 0.408,-0.153 0.516,-0.26 0.152,-0.109 0.262,-0.247 0.362,-0.382 0.39,-0.557 0.529,-1.157 0.639,-1.743 0.194,-1.177 0.151,-2.349 -0.011,-3.498 -0.182,-1.145 -0.455,-2.292 -1.096,-3.332 -0.309,-0.496 -0.822,-1.041 -1.506,-1.16 -0.234,-0.07 -0.663,-0.094 -0.938,-0.063 -0.308,0.02 -0.601,0.084 -0.882,0.157 -1.115,0.311 -2.115,0.695 -3.17,0.874 -2.086,0.368 -4.27,0.032 -6.239,-0.623 -4.017,-1.316 -7.703,-3.24 -11.384,-4.657 -1.84,-0.713 -3.674,-1.339 -5.547,-1.67 -1.829,-0.318 -3.62,-0.528 -5.343,-0.642 -1.707,-0.13 -3.417,-0.099 -4.892,-0.153 -0.087,-0.006 -0.163,-0.019 -0.213,-0.029 -0.021,-0.004 -0.025,-0.013 0.026,0.02 0.148,0.139 0.053,0.055 0.04,0.018 -0.11,-0.161 -0.216,-0.32 -0.294,-0.463 -0.174,-0.292 -0.333,-0.627 -0.478,-0.947 -0.288,-0.651 -0.521,-1.317 -0.739,-1.969 -0.842,-2.618 -1.526,-5.005 -2.549,-6.81 -0.981,-1.836 -2.38,-2.915 -3.403,-3.329 -0.514,-0.216 -0.926,-0.314 -1.205,-0.359 -0.279,-0.038 -0.423,-0.058 -0.423,-0.058 0,0 0.127,0.069 0.374,0.201 0.244,0.127 0.598,0.333 1.02,0.633 0.846,0.601 1.913,1.659 2.825,3.359 0.948,1.687 1.606,3.995 2.448,6.664 0.219,0.667 0.457,1.357 0.762,2.059 0.159,0.352 0.318,0.697 0.53,1.059 0.105,0.189 0.211,0.348 0.317,0.505 0.043,0.041 -0.009,0.047 0.218,0.244 0.133,0.084 0.221,0.105 0.295,0.126 0.139,0.031 0.255,0.045 0.362,0.054 1.64,0.076 3.212,0.026 4.918,0.142 1.692,0.1 3.446,0.292 5.252,0.592 1.767,0.297 3.565,0.894 5.382,1.579 3.649,1.359 7.345,3.245 11.477,4.554 0.509,0.173 1.057,0.296 1.591,0.439 0.519,0.098 1.068,0.223 1.628,0.274 1.108,0.126 2.252,0.107 3.372,-0.09 1.12,-0.194 2.198,-0.609 3.223,-0.897 0.532,-0.134 0.985,-0.206 1.483,-0.093 0.442,0.068 0.783,0.413 1.064,0.845 0.546,0.876 0.835,1.968 0.992,3.047 0.15,1.085 0.181,2.208 -10e-4,3.274 -0.095,0.523 -0.242,1.057 -0.517,1.435 -0.151,0.195 -0.274,0.303 -0.458,0.357 -0.197,0.049 -0.531,0.067 -0.794,0.096 -1.126,0.096 -2.263,0.165 -3.399,0.226 -9.098,0.455 -18.22,0.641 -26.76,0.628 -4.27,-0.023 -8.401,-0.09 -12.292,-0.349 -1.935,-0.163 -3.859,-0.263 -5.513,-0.773 -1.611,-0.585 -2.893,-1.835 -4.165,-2.967 -1.265,-1.183 -2.657,-2.181 -4.024,-2.964 -1.361,-0.788 -2.606,-1.513 -3.674,-2.344 -1.06,-0.825 -1.98,-1.716 -2.772,-2.598 -0.813,-0.886 -1.56,-1.7 -2.235,-2.435 -2.699,-2.939 -4.241,-4.619 -4.241,-4.619 z"
         style="fill:#231f20;fill-opacity:1;fill-rule:nonzero;stroke:none"
         id="path678"
         inkscape:connector-curvature="0" /><path
         d="m 670.0554,532.3878 c 0,0 0.048,-0.419 0.137,-1.206 0.111,-0.773 0.305,-1.883 0.621,-3.322 0.644,-2.863 1.782,-6.918 3.297,-11.742 1.511,-4.825 3.426,-10.411 5.553,-16.371 0.544,-1.481 1.039,-3.115 1.234,-4.783 0.107,-0.833 0.135,-1.686 0.191,-2.477 0.03,-0.396 0.072,-0.773 0.167,-1.116 0.044,-0.164 0.125,-0.393 0.11,-0.344 -0.042,0.042 -10e-4,-0.01 0.128,-0.013 0.566,-0.01 1.386,0.321 2.088,0.653 0.726,0.347 1.439,0.757 2.138,1.194 1.395,0.878 2.744,1.865 3.995,2.945 0.623,0.541 1.225,1.107 1.753,1.71 0.262,0.3 0.505,0.613 0.692,0.924 0.091,0.154 0.164,0.31 0.202,0.438 0.018,0.064 0.026,0.117 0.026,0.149 -10e-4,0.014 -0.003,0.029 -0.003,0.029 l 10e-4,0.004 c 0.006,-0.019 -0.033,0.143 -0.02,0.094 -0.002,0.01 -0.012,0.079 -0.014,0.154 0.011,0.387 0.049,0.489 0.063,0.711 0.017,0.194 0.028,0.383 0.025,0.573 -10e-4,0.379 -0.042,0.76 -0.117,1.138 -0.04,0.189 -0.084,0.377 -0.137,0.564 -0.053,0.194 -0.091,0.279 -0.171,0.401 -0.074,0.113 -0.246,0.296 -0.386,0.535 -0.142,0.238 -0.229,0.464 -0.304,0.717 -0.231,0.888 -0.306,1.698 -0.454,2.494 -0.074,0.395 -0.141,0.778 -0.271,1.091 -0.116,0.284 -0.327,0.639 -0.536,0.97 -0.413,0.664 -0.943,1.411 -1.171,2.293 -0.231,0.763 -0.444,1.552 -0.638,2.334 -0.768,3.11 -1.215,6.162 -1.57,9.052 -0.354,2.891 -0.616,5.624 -0.894,8.138 -0.276,2.514 -0.563,4.811 -0.919,6.823 -0.347,2.014 -0.781,3.738 -1.243,5.115 -0.453,1.378 -0.895,2.431 -1.274,3.117 -0.17,0.355 -0.335,0.608 -0.445,0.781 -0.104,0.179 -0.158,0.271 -0.158,0.271 0,0 0.079,-0.071 0.232,-0.21 0.152,-0.142 0.374,-0.357 0.629,-0.671 0.504,-0.626 1.166,-1.636 1.695,-3.047 1.081,-2.819 1.785,-7.04 2.41,-12.07 0.319,-2.517 0.623,-5.243 1.021,-8.109 0.41,-2.862 0.872,-5.876 1.625,-8.916 0.19,-0.755 0.394,-1.507 0.631,-2.282 0.173,-0.69 0.601,-1.294 1.045,-2.005 0.223,-0.359 0.445,-0.701 0.642,-1.176 0.179,-0.448 0.25,-0.883 0.329,-1.295 0.152,-0.823 0.242,-1.668 0.435,-2.39 0.044,-0.144 0.108,-0.309 0.182,-0.428 0.069,-0.123 0.187,-0.245 0.349,-0.475 0.159,-0.222 0.279,-0.53 0.331,-0.74 0.061,-0.215 0.113,-0.433 0.16,-0.654 0.088,-0.443 0.139,-0.899 0.142,-1.359 0.003,-0.23 -0.009,-0.461 -0.029,-0.686 l -0.059,-0.543 c -0.003,0.022 -0.012,0.039 -0.003,-0.003 0.017,-0.075 -0.018,0.061 -0.006,0.017 l 0.017,-0.074 c 0.025,-0.101 0.028,-0.192 0.03,-0.284 -10e-4,-0.178 -0.031,-0.333 -0.071,-0.472 -0.081,-0.275 -0.196,-0.5 -0.317,-0.709 -0.247,-0.413 -0.526,-0.766 -0.818,-1.102 -0.583,-0.668 -1.215,-1.261 -1.865,-1.829 -1.304,-1.129 -2.687,-2.144 -4.137,-3.061 -0.727,-0.456 -1.47,-0.886 -2.254,-1.263 -0.808,-0.352 -1.555,-0.757 -2.667,-0.773 -0.279,0.019 -0.675,0.085 -0.991,0.447 -0.273,0.378 -0.26,0.578 -0.343,0.803 -0.122,0.458 -0.165,0.906 -0.195,1.331 -0.056,0.852 -0.076,1.64 -0.172,2.425 -0.181,1.575 -0.613,3.048 -1.151,4.539 -2.104,5.978 -3.997,11.586 -5.493,16.437 -1.516,4.844 -2.587,8.948 -3.197,11.861 -0.298,1.452 -0.486,2.634 -0.586,3.43 -0.079,0.788 -0.12,1.208 -0.12,1.208 z"
         style="fill:#110f0d;fill-opacity:1;fill-rule:nonzero;stroke:none"
         id="path682"
         inkscape:connector-curvature="0" /></g><g
       id="g3784"
       transform="matrix(0.88688313,0,0,0.88688313,44.741289,-593.31853)"><path
         d="m 613.0845,760.3787 c 5.812,-0.321 29.579,-18.289 33.155,-21.477"
         style="fill:none;stroke:#110f0d;stroke-width:1;stroke-linecap:butt;stroke-linejoin:miter;stroke-miterlimit:10;stroke-dasharray:none;stroke-opacity:1"
         id="path352"
         inkscape:connector-curvature="0" /><path
         d="m 658.3235,718.9891 c 0,0 -0.247,0.027 -0.711,0.079 -0.456,0.034 -1.163,0.172 -2.042,0.334 -0.431,0.102 -0.908,0.215 -1.427,0.338 -0.511,0.148 -1.065,0.307 -1.655,0.478 -1.173,0.368 -2.473,0.85 -3.858,1.454 -0.693,0.3 -1.393,0.66 -2.129,1.007 -0.723,0.372 -1.453,0.792 -2.212,1.205 -0.731,0.461 -1.482,0.935 -2.25,1.419 -0.731,0.538 -1.499,1.06 -2.24,1.641 -1.471,1.18 -2.93,2.478 -4.273,3.932 -1.344,1.45 -2.614,3.022 -3.665,4.732 -1.103,1.681 -1.912,3.528 -2.715,5.311 -0.781,1.798 -1.56,3.562 -2.42,5.219 -0.851,1.659 -1.735,3.235 -2.692,4.651 -0.935,1.431 -1.984,2.666 -3.018,3.73 -1.032,1.068 -2.089,1.928 -3.057,2.637 -0.981,0.693 -1.882,1.228 -2.646,1.622 -0.747,0.425 -1.376,0.679 -1.796,0.865 -0.421,0.185 -0.645,0.283 -0.645,0.283 l 0.424,0.905 c 0,0 0.219,-0.126 0.631,-0.364 0.407,-0.245 1.025,-0.559 1.758,-1.057 0.75,-0.464 1.617,-1.1 2.568,-1.87 0.95,-0.772 1.978,-1.701 2.966,-2.832 0.98,-1.136 1.981,-2.418 2.893,-3.869 0.911,-1.45 1.789,-3.027 2.626,-4.695 0.826,-1.674 1.68,-3.403 2.547,-5.16 0.911,-1.737 1.898,-3.453 3.052,-5.058 1.131,-1.616 2.382,-3.145 3.72,-4.547 1.338,-1.404 2.786,-2.653 4.243,-3.786 0.734,-0.558 1.494,-1.057 2.217,-1.573 0.758,-0.462 1.5,-0.915 2.222,-1.355 0.75,-0.392 1.468,-0.793 2.181,-1.146 0.725,-0.328 1.414,-0.67 2.095,-0.952 1.363,-0.565 2.635,-1.02 3.774,-1.388 0.574,-0.166 1.111,-0.322 1.608,-0.466 0.502,-0.12 0.963,-0.23 1.38,-0.329 0.832,-0.152 1.468,-0.284 1.944,-0.321 0.463,-0.052 0.71,-0.08 0.71,-0.08 z"
         style="fill:#110f0d;fill-opacity:1;fill-rule:nonzero;stroke:none"
         id="path356"
         inkscape:connector-curvature="0" /><path
         d="m 611.7438,760.3787 c -2.488,-0.544 -5.053,-0.078 -6.297,-1.711 -1.244,-1.632 5.597,-31.252 6.297,-38.715 0.7,-7.463 2.177,-30.864 2.566,-32.03 0.388,-1.166 6.296,-9.018 30.941,-7.308 24.645,1.711 24.8,6.607 25.5,7.463 0.7,0.855 0.311,9.796 0.311,9.796"
         style="fill:none;stroke:#110f0d;stroke-width:1.20000005;stroke-linecap:butt;stroke-linejoin:miter;stroke-miterlimit:10;stroke-dasharray:none;stroke-opacity:1"
         id="path360"
         inkscape:connector-curvature="0" /><path
         d="m 646.6995,773.4471 c 0,0 -0.015,-0.123 -0.043,-0.36 -0.026,-0.236 -0.086,-0.598 -0.091,-1.031 -0.045,-0.86 -0.071,-2.226 -0.037,-3.943 0.046,-3.44 0.257,-8.371 0.624,-14.278 0.188,-2.951 0.401,-6.157 0.731,-9.516 0.039,-0.422 0.088,-0.838 0.143,-1.252 l 0.04,-0.313 c 0.017,-0.07 0.03,-0.139 0.04,-0.21 l 0.013,-0.108 c -0.187,0.285 -0.036,0.062 -0.07,0.118 l 0.027,-0.03 c 0.037,-0.047 0,0.025 -0.035,0.054 -0.036,0.033 -0.083,0.055 -0.125,0.061 -0.017,0.003 0.017,10e-4 0.022,10e-4 0.029,0 0.038,-0.01 0.087,-0.005 0.695,0.034 1.601,0.285 2.432,0.504 1.711,0.494 3.458,0.999 5.235,1.513 1.788,0.507 3.618,1.002 5.512,1.384 0.948,0.189 1.912,0.349 2.902,0.436 1.013,0.085 1.965,0.069 2.981,0.017 1.986,-0.134 4.013,-0.55 5.856,-1.461 0.458,-0.22 0.907,-0.481 1.323,-0.721 0.105,-0.06 0.206,-0.116 0.298,-0.161 l 0.035,-0.019 c 0.029,-0.013 -0.13,0.045 -0.042,0.015 l 0.045,-0.013 c 0.032,-0.011 0.017,0 -0.035,0.011 -0.188,0.012 -0.216,-0.062 -0.234,-0.062 -0.01,-0.042 0.102,0.227 0.129,0.415 0.157,0.875 0.139,1.871 0.08,2.823 -0.073,0.941 -0.183,1.961 -0.489,2.741 -0.044,0.103 -0.06,0.129 -0.145,0.247 -0.069,0.107 -0.139,0.194 -0.208,0.278 l -0.452,0.565 c -0.312,0.397 -0.605,0.81 -0.889,1.229 -1.098,1.7 -1.915,3.533 -2.572,5.386 -1.316,3.713 -2.068,7.505 -2.655,11.174 -0.588,3.672 -0.862,7.259 -1.456,10.576 -0.582,3.319 -1.282,6.459 -2.414,9.15 -0.552,1.346 -1.229,2.584 -2.1,3.539 -0.436,0.478 -0.92,0.865 -1.448,1.175 -0.265,0.165 -0.532,0.276 -0.863,0.517 l -0.174,0.153 -0.191,0.223 c -0.108,0.151 -0.199,0.296 -0.267,0.451 -0.284,0.617 -0.351,1.234 -0.415,1.798 -0.03,0.274 -0.051,0.575 -0.103,0.762 l -0.015,0.049 0.005,-0.009 0.006,-0.002 c -0.014,0.012 0.173,-0.12 0.081,-0.06 l -0.096,0.031 c -0.015,-0.007 -0.018,-0.021 -0.025,-0.027 0.02,-0.007 -0.171,-0.031 -0.267,-0.051 -0.958,-0.228 -1.832,-0.626 -2.572,-1.019 -1.491,-0.8 -2.52,-1.653 -3.152,-2.305 -0.305,-0.336 -0.546,-0.598 -0.673,-0.799 -0.147,-0.192 -0.223,-0.29 -0.223,-0.29 0,0 0.048,0.115 0.14,0.338 0.088,0.228 0.264,0.541 0.517,0.945 0.534,0.779 1.544,1.802 3.102,2.646 0.781,0.418 1.66,0.834 2.73,1.096 0.161,0.019 0.226,0.069 0.513,0.057 0.059,-0.003 0.124,-0.01 0.174,-0.02 l 0.096,-0.03 c 0.277,-0.208 0.209,-0.272 0.264,-0.367 0.089,-0.337 0.094,-0.593 0.131,-0.877 0.063,-0.546 0.139,-1.109 0.367,-1.589 0.052,-0.121 0.128,-0.232 0.196,-0.33 l 0.105,-0.129 0.175,-0.152 c 0.174,-0.121 0.485,-0.274 0.767,-0.44 0.577,-0.333 1.132,-0.771 1.61,-1.29 0.959,-1.04 1.668,-2.336 2.249,-3.72 1.185,-2.773 1.908,-5.942 2.52,-9.296 0.624,-3.367 0.918,-6.933 1.525,-10.573 0.603,-3.633 1.376,-7.382 2.685,-10.998 0.651,-1.806 1.457,-3.571 2.506,-5.173 0.271,-0.394 0.55,-0.783 0.85,-1.159 l 0.475,-0.587 c 0.086,-0.107 0.17,-0.213 0.235,-0.313 0.063,-0.08 0.178,-0.264 0.227,-0.39 0.416,-1.064 0.491,-2.043 0.589,-3.062 0.064,-1.015 0.103,-2.012 -0.078,-3.085 -0.027,-0.136 -0.059,-0.276 -0.11,-0.425 -0.059,-0.151 -0.1,-0.307 -0.301,-0.517 -0.1,-0.089 -0.246,-0.226 -0.558,-0.216 -0.083,0.005 -0.125,0.018 -0.125,0.018 l -0.044,0.012 c 0.058,-0.023 -0.128,0.047 -0.128,0.047 l -0.047,0.023 c -0.131,0.063 -0.245,0.126 -0.355,0.188 -0.438,0.25 -0.844,0.481 -1.273,0.685 -1.701,0.827 -3.59,1.207 -5.475,1.322 -0.925,0.044 -1.916,0.053 -2.823,-0.033 -0.929,-0.087 -1.859,-0.247 -2.779,-0.436 -1.842,-0.384 -3.647,-0.884 -5.418,-1.399 -1.779,-0.526 -3.527,-1.043 -5.238,-1.55 -0.889,-0.228 -1.688,-0.497 -2.736,-0.562 -0.06,-0.007 -0.159,0.006 -0.239,0.012 -0.048,0.007 -0.069,0.005 -0.139,0.02 -0.094,0.024 -0.191,0.063 -0.278,0.115 -0.086,0.048 -0.175,0.13 -0.175,0.13 l -0.028,0.029 c -0.053,0.076 0.077,-0.128 -0.125,0.178 l -0.055,0.21 -0.095,0.423 -0.042,0.329 c -0.059,0.438 -0.111,0.871 -0.149,1.294 -0.336,3.399 -0.549,6.601 -0.741,9.563 -0.369,5.923 -0.585,10.864 -0.634,14.337 -0.032,1.739 -0.012,3.091 0.042,4.08 0.011,0.494 0.069,0.834 0.095,1.074 0.028,0.237 0.043,0.36 0.043,0.36 z"
         style="fill:#110f0d;fill-opacity:1;fill-rule:nonzero;stroke:none"
         id="path364"
         inkscape:connector-curvature="0" /><path
         d="m 656.0574,793.3421 c 0,0 -0.241,-0.136 -0.693,-0.391 -0.453,-0.244 -1.108,-0.628 -1.934,-1.124 -1.663,-0.973 -4.04,-2.355 -6.928,-3.949 -2.889,-1.591 -6.266,-3.44 -9.841,-5.494 -1.784,-1.031 -3.634,-2.087 -5.485,-3.194 -0.914,-0.557 -1.87,-1.124 -2.706,-1.728 -0.115,-0.078 -0.179,-0.142 -0.265,-0.209 -0.004,-0.006 0.037,0.033 0.041,0.058 0.006,0.015 0.009,0.031 0.009,0.047 -0.005,-0.01 0.048,0.219 0.025,0.108 l -0.002,-0.026 -0.016,-0.205 c 0.019,-0.09 0.041,-0.152 0.046,-0.231 l 0.078,-0.368 c 0.113,-0.507 0.269,-1.028 0.425,-1.544 0.656,-2.061 1.412,-4.142 2.331,-6.036 0.112,-0.24 0.243,-0.453 0.365,-0.668 l 0.185,-0.267 c 0.015,-0.006 0.022,-0.015 0.027,-0.034 l 0.003,-0.015 c -0.27,0.092 -0.061,0.024 -0.115,0.044 l 0.025,-0.002 c 0.032,-10e-4 0.072,-0.008 0.096,-0.006 -0.058,0.05 0.304,0.095 0.517,0.19 l 0.731,0.267 c 0.979,0.376 1.946,0.786 2.895,1.184 3.8,1.611 7.361,3.111 10.474,4.252 3.113,1.132 5.794,1.894 7.74,2.098 0.97,0.107 1.751,0.055 2.258,-0.075 0.256,-0.065 0.439,-0.146 0.55,-0.227 0.115,-0.068 0.174,-0.103 0.174,-0.103 0,0 -0.063,0.027 -0.186,0.08 -0.117,0.065 -0.305,0.116 -0.558,0.152 -0.503,0.079 -1.256,0.039 -2.191,-0.143 -1.873,-0.359 -4.476,-1.238 -7.535,-2.447 -3.069,-1.195 -6.582,-2.758 -10.353,-4.447 -0.945,-0.419 -1.903,-0.848 -2.9,-1.255 l -0.764,-0.296 c -0.289,-0.085 -0.439,-0.206 -1.027,-0.248 l -0.105,0.006 -0.025,0.002 c -0.071,0.021 0.122,-0.046 -0.165,0.048 l -0.072,0.052 c -0.096,0.071 -0.189,0.151 -0.275,0.234 -0.111,0.136 -0.191,0.258 -0.287,0.389 -0.15,0.249 -0.305,0.497 -0.428,0.745 -1.01,1.99 -1.811,4.044 -2.518,6.168 -0.167,0.536 -0.332,1.069 -0.464,1.636 l -0.094,0.437 c -0.028,0.194 -0.051,0.404 -0.056,0.587 l 0.014,0.206 10e-4,0.026 c -0.023,-0.094 0.033,0.152 0.041,0.154 l 0.072,0.127 c 0.048,0.079 0.127,0.176 0.171,0.218 0.126,0.108 0.263,0.231 0.376,0.308 0.937,0.687 1.861,1.239 2.793,1.818 1.858,1.136 3.705,2.212 5.507,3.226 3.602,2.031 6.98,3.894 9.909,5.433 2.931,1.533 5.442,2.687 7.236,3.416 0.905,0.352 1.616,0.62 2.11,0.787 0.497,0.149 0.763,0.229 0.763,0.229"
         style="fill:#110f0d;fill-opacity:1;fill-rule:nonzero;stroke:none"
         id="path368"
         inkscape:connector-curvature="0" /><path
         d="m 645.9119,770.0964 c -1.633,-2.488 -6.846,-6.297 -7.679,-6.53 -0.834,-0.233 3.898,-4.43 4.131,-6.608 0.31,-2.901 2.666,-0.981 3.876,-0.195"
         style="fill:none;stroke:#110f0d;stroke-width:0.71799999;stroke-linecap:butt;stroke-linejoin:miter;stroke-miterlimit:10;stroke-dasharray:none;stroke-opacity:1"
         id="path372"
         inkscape:connector-curvature="0" /><path
         d="m 655.1108,796.6889 c 0.466,3.383 -1.541,16.244 -10.248,15.622 -8.708,-0.622 -12.362,-7.463 -12.206,-9.096 0.156,-1.632 4.276,-5.209 5.053,-7.929 0.777,-2.721 0.777,-2.955 0.933,-4.043 0.155,-1.088 1.011,0.311 1.554,0.544 0.545,0.233 3.684,-4.662 3.684,-4.662"
         style="fill:none;stroke:#110f0d;stroke-width:1.20000005;stroke-linecap:butt;stroke-linejoin:miter;stroke-miterlimit:10;stroke-dasharray:none;stroke-opacity:1"
         id="path376"
         inkscape:connector-curvature="0" /><path
         d="m 627.6599,776.316 c -3.032,-0.777 -13.428,-3.809 -14.828,-4.82 -1.399,-1.011 -6.471,-5.095 -2.944,-9.222 3.926,-4.595 2.653,-1.05 3.896,-0.784 1.065,0.228 0.914,5.108 2.469,5.419 1.555,0.311 11.731,0.887 14.219,2.292"
         style="fill:none;stroke:#110f0d;stroke-width:1;stroke-linecap:butt;stroke-linejoin:miter;stroke-miterlimit:10;stroke-dasharray:none;stroke-opacity:1"
         id="path380"
         inkscape:connector-curvature="0" /><path
         d="m 638.157,762.7889 c -2.158,-0.622 -21.982,0 -25.073,-2.41"
         style="fill:none;stroke:#110f0d;stroke-width:0.71799999;stroke-linecap:butt;stroke-linejoin:miter;stroke-miterlimit:10;stroke-dasharray:none;stroke-opacity:1"
         id="path384"
         inkscape:connector-curvature="0" /><path
         d="m 642.6663,755.9219 c -4.5,0.389 -18.173,1.891 -19.106,1.658 -0.933,-0.233 -1.615,-1.266 -1.615,-1.266"
         style="fill:none;stroke:#110f0d;stroke-width:0.71799999;stroke-linecap:butt;stroke-linejoin:miter;stroke-miterlimit:10;stroke-dasharray:none;stroke-opacity:1"
         id="path388"
         inkscape:connector-curvature="0" /><path
         d="m 647.9723,742.0443 c -1.244,-2.656 -7.774,-13.073 -8.629,-13.989"
         style="fill:none;stroke:#110f0d;stroke-width:1.20000005;stroke-linecap:butt;stroke-linejoin:miter;stroke-miterlimit:10;stroke-dasharray:none;stroke-opacity:1"
         id="path392"
         inkscape:connector-curvature="0" /><path
         d="m 674.4583,743.9047 c 0,0 -0.06,-0.59 -0.107,-1.586 -0.049,-1.016 -0.118,-2.467 -0.201,-4.208 -0.137,-3.494 -0.394,-8.152 -0.641,-12.812 -0.279,-4.659 -0.6,-9.316 -0.915,-12.807 -0.154,-1.745 -0.294,-3.204 -0.55,-4.21 -0.098,-0.503 -0.253,-0.894 -0.354,-1.153 -0.094,-0.261 -0.162,-0.393 -0.162,-0.393 0,0 -0.011,0.155 0,0.43 0.006,0.273 0.015,0.673 0.026,1.183 0.02,1.016 0.159,2.46 0.268,4.203 0.227,3.484 0.418,8.142 0.592,12.8 0.19,4.66 0.38,9.319 0.523,12.814 0.087,1.753 0.161,3.213 0.212,4.236 0.054,1.041 0.114,1.612 0.114,1.612 z"
         style="fill:#110f0d;fill-opacity:1;fill-rule:nonzero;stroke:none"
         id="path396"
         inkscape:connector-curvature="0" /><path
         d="m 671.8279,710.353 c 0,0 0.09,0.022 0.264,0.065 0.168,0.039 0.505,0.106 0.853,0.145 0.728,0.093 1.773,0.144 3.091,0.122 1.317,-0.024 2.907,-0.116 4.721,-0.315 1.814,-0.204 3.852,-0.489 6.06,-1.023 0.551,-0.141 1.114,-0.296 1.686,-0.492 0.574,-0.214 1.152,-0.409 1.761,-0.866 0.155,-0.115 0.299,-0.252 0.464,-0.484 l 0.234,-0.39 c 0.151,-0.304 0.321,-0.644 0.421,-0.945 0.242,-0.619 0.395,-1.264 0.528,-1.922 0.228,-1.32 0.269,-2.727 -0.057,-4.145 -0.313,-1.407 -1.201,-2.835 -2.562,-3.637 -0.345,-0.19 -0.688,-0.332 -1.071,-0.493 -0.347,-0.101 -0.641,-0.223 -1.034,-0.309 -0.373,-0.101 -0.763,-0.167 -1.178,-0.193 -0.419,-10e-4 -0.938,0.031 -1.399,0.394 -0.452,0.377 -0.584,0.849 -0.705,1.183 -0.117,0.351 -0.221,0.644 -0.36,0.877 -0.143,0.221 -0.331,0.378 -0.569,0.506 l -0.433,0.115 c -0.153,0.014 -0.285,0.004 -0.428,0.014 -1.298,0.019 -2.815,-0.245 -4.248,-0.455 -1.456,-0.224 -2.922,-0.462 -4.4,-0.662 -2.951,-0.352 -5.977,-0.761 -8.995,-0.021 l -0.56,0.169 -0.139,0.042 -0.035,0.011 c -0.117,0.051 -0.049,0.023 -0.083,0.039 l -0.06,0.032 -0.24,0.13 c -0.319,0.174 -0.64,0.314 -0.956,0.614 -0.673,0.515 -1.123,1.116 -1.555,1.733 -0.85,1.246 -1.352,2.621 -1.791,3.966 -0.83,2.713 -1.203,5.421 -1.345,7.99 -0.086,1.285 -0.071,2.54 -0.031,3.753 0.047,0.608 0.068,1.204 0.153,1.791 l 0.054,0.437 0.041,0.404 c 0.025,0.282 0.058,0.568 0.04,0.819 -0.006,1.033 -0.163,2.099 -0.363,3.068 -0.189,0.98 -0.435,1.901 -0.674,2.763 -0.497,1.721 -1.03,3.192 -1.448,4.411 -0.406,1.226 -0.791,2.163 -1.033,2.814 -0.122,0.326 -0.235,0.566 -0.305,0.732 -0.07,0.167 -0.106,0.253 -0.106,0.253 0,0 0.057,-0.074 0.166,-0.218 0.116,-0.141 0.265,-0.365 0.451,-0.662 0.388,-0.587 0.868,-1.498 1.413,-2.685 0.537,-1.192 1.078,-2.685 1.598,-4.431 0.25,-0.876 0.509,-1.812 0.712,-2.82 0.211,-1.012 0.387,-2.063 0.402,-3.254 0.017,-0.306 -0.014,-0.579 -0.037,-0.862 l -0.042,-0.447 -0.048,-0.42 c -0.079,-0.559 -0.094,-1.142 -0.135,-1.73 -0.031,-1.181 -0.036,-2.407 0.058,-3.664 0.157,-2.511 0.546,-5.163 1.364,-7.763 0.428,-1.283 0.923,-2.592 1.702,-3.709 0.384,-0.548 0.829,-1.099 1.31,-1.462 0.198,-0.223 0.546,-0.382 0.866,-0.551 l 0.241,-0.128 0.06,-0.032 c -0.014,0.006 0.072,-0.036 -0.022,0.01 l 0.03,-0.009 0.122,-0.035 0.489,-0.142 c 2.689,-0.65 5.694,-0.266 8.585,0.114 1.458,0.208 2.916,0.456 4.376,0.692 1.483,0.22 2.876,0.508 4.501,0.499 0.22,-0.013 0.455,-0.023 0.661,-0.052 l 0.264,-0.068 0.133,-0.034 0.066,-0.016 c 0.047,-0.018 -0.059,0.026 0.114,-0.041 l 0.038,-0.021 c 0.408,-0.204 0.789,-0.525 1.037,-0.916 0.459,-0.76 0.558,-1.618 0.83,-1.771 0.218,-0.194 0.939,-0.148 1.536,0.033 0.298,0.061 0.659,0.205 0.984,0.303 0.256,0.12 0.563,0.244 0.823,0.389 1.038,0.636 1.716,1.703 1.981,2.897 0.268,1.195 0.224,2.455 0.019,3.639 -0.118,0.588 -0.254,1.172 -0.464,1.706 -0.097,0.287 -0.207,0.495 -0.318,0.74 l -0.234,0.391 c -0.02,0.007 -0.078,0.094 -0.169,0.153 -0.347,0.272 -0.896,0.492 -1.403,0.673 -0.521,0.18 -1.053,0.328 -1.578,0.463 -2.114,0.518 -4.121,0.805 -5.895,1.007 -1.777,0.199 -3.334,0.292 -4.609,0.318 -1.276,0.023 -2.271,-0.024 -2.922,-0.107 -0.342,-0.041 -0.528,-0.077 -0.71,-0.117 -0.175,-0.043 -0.265,-0.065 -0.265,-0.065 z"
         style="fill:#110f0d;fill-opacity:1;fill-rule:nonzero;stroke:none"
         id="path400"
         inkscape:connector-curvature="0" /><path
         d="m 657.3025,726.0084 c 0,0 -0.092,-0.03 -0.255,-0.083 -0.09,-0.038 -0.271,-0.114 -0.515,-0.268 -0.473,-0.287 -1.106,-0.77 -1.771,-1.219 -0.66,-0.453 -1.379,-0.843 -1.95,-1.039 -0.284,-0.097 -0.526,-0.164 -0.699,-0.185 -0.171,-0.028 -0.268,-0.043 -0.268,-0.043 0,0 0.386,0.105 0.889,0.398 0.506,0.291 1.103,0.781 1.648,1.334 0.551,0.548 1.072,1.135 1.539,1.56 0.222,0.21 0.462,0.388 0.672,0.516 0.153,0.085 0.24,0.133 0.24,0.133 z"
         style="fill:#110f0d;fill-opacity:1;fill-rule:nonzero;stroke:none"
         id="path404"
         inkscape:connector-curvature="0" /><path
         d="m 673.4572,733.0132 c 2.177,0.233 2.036,0.621 2.347,0.077 0.311,-0.543 -1.44,-9.642 -3.047,-12.361"
         style="fill:none;stroke:#110f0d;stroke-width:0.71799999;stroke-linecap:butt;stroke-linejoin:miter;stroke-miterlimit:10;stroke-dasharray:none;stroke-opacity:1"
         id="path408"
         inkscape:connector-curvature="0" /><path
         d="m 675.9438,732.7017 c 1.881,0 0.327,-3.731 0.949,-6.296 0.622,-2.566 2.954,-5.598 3.187,-7.542 0.233,-1.943 -0.777,-6.452 -1.088,-7.152 -0.311,-0.699 -2.411,-1.321 -3.421,2.41 -1.01,3.732 -2.14,3.889 -2.951,4.651"
         style="fill:none;stroke:#110f0d;stroke-width:1;stroke-linecap:butt;stroke-linejoin:miter;stroke-miterlimit:10;stroke-dasharray:none;stroke-opacity:1"
         id="path412"
         inkscape:connector-curvature="0" /><path
         d="m 690.8044,705.9588 c 2.336,0.777 3.425,-12.361 2.258,-14.383 -1.166,-2.02 -8.007,-3.342 -8.94,-2.876 -0.933,0.467 1.011,6.493 1.322,7.349"
         style="fill:none;stroke:#110f0d;stroke-width:1;stroke-linecap:butt;stroke-linejoin:miter;stroke-miterlimit:10;stroke-dasharray:none;stroke-opacity:1"
         id="path416"
         inkscape:connector-curvature="0" /><path
         d="m 605.6604,758.0457 c 0,0 0.266,-1.07 0.692,-2.95 0.41,-1.883 1.038,-4.565 1.713,-7.797 0.333,-1.617 0.695,-3.369 1.076,-5.222 0.367,-1.855 0.753,-3.812 1.153,-5.837 0.385,-2.027 0.782,-4.121 1.185,-6.25 0.373,-2.144 0.81,-4.27 1.14,-6.489 0.312,-2.223 0.518,-4.423 0.714,-6.588 0.201,-2.164 0.334,-4.298 0.461,-6.361 0.253,-4.127 0.396,-7.982 0.462,-11.288 0.086,-3.305 0.038,-6.064 0.02,-7.993 -0.03,-1.931 -0.125,-3.032 -0.125,-3.032 0,0 -0.075,1.101 -0.247,3.019 -0.182,1.917 -0.443,4.656 -0.756,7.942 -0.314,3.283 -0.68,7.113 -1.073,11.216 -0.208,2.048 -0.423,4.164 -0.641,6.313 -0.222,2.148 -0.488,4.325 -0.788,6.461 -0.31,2.135 -0.751,4.324 -1.114,6.45 -0.363,2.136 -0.721,4.237 -1.066,6.271 -0.33,2.037 -0.65,4.006 -0.952,5.873 -0.288,1.87 -0.559,3.638 -0.81,5.27 -0.493,3.265 -0.837,5.998 -1.11,7.906 -0.254,1.91 -0.378,3.006 -0.378,3.006 z"
         style="fill:#110f0d;fill-opacity:1;fill-rule:nonzero;stroke:none"
         id="path420"
         inkscape:connector-curvature="0" /><path
         d="m 613.1906,701.897 c -0.813,-0.174 -1.946,-0.342 -1.946,-0.342 l 0.105,-4.585 2.494,0.152"
         style="fill:#110f0d;fill-opacity:1;fill-rule:nonzero;stroke:none"
         id="path686"
         inkscape:connector-curvature="0" /></g><g
       id="g3733"
       transform="matrix(0.88688313,0,0,0.88688313,-129.78493,-111.72047)"><g
         id="g3823"
         transform="translate(755.57756,-705.45232)"><path
           inkscape:connector-curvature="0"
           id="path82"
           style="fill:none;stroke:#110f0d;stroke-width:1.21000004;stroke-linecap:butt;stroke-linejoin:miter;stroke-miterlimit:10;stroke-dasharray:none;stroke-opacity:1"
           d="m -581.18667,987.50933 c -5.417,-4.968 -11.823,-43.977 -11.823,-67.792 0,-30.03 2.002,-51.678 2.048,-63.552 0.018,-4.711 0.989,-8.455 5.129,-10.717 9.618,-5.257 47.266,-6.727 66.808,-4.305 19.884,2.464 33.654,7.988 33.945,13.944 0.245,4.972 1.647,23.759 0.102,52.476 -1.1,20.383 -24.234,61.27 -76.834,81.17 -1.501,0.568 -2.688,0.569 -6.639,0.569 -3.951,0 -10.418,0.332 -12.736,-1.793 z" /><path
           inkscape:connector-curvature="0"
           id="path86"
           style="fill:#110f0d;fill-opacity:1;fill-rule:nonzero;stroke:none"
           d="m -568.45127,989.30203 c 0,0 0.286,-0.211 0.821,-0.607 0.53,-0.404 1.339,-0.951 2.275,-1.776 0.969,-0.786 2.079,-1.816 3.315,-3.038 1.212,-1.244 2.549,-2.691 3.828,-4.412 1.329,-1.686 2.57,-3.658 3.811,-5.781 1.201,-2.147 2.326,-4.492 3.3,-6.995 0.956,-2.509 1.781,-5.159 2.479,-7.887 0.689,-2.731 1.209,-5.545 1.632,-8.371 0.769,-5.665 1.001,-11.378 0.96,-16.718 -0.025,-2.671 -0.137,-5.25 -0.307,-7.69 -0.153,-2.441 -0.36,-4.744 -0.574,-6.866 -0.421,-4.245 -0.957,-7.759 -1.318,-10.217 -0.381,-2.457 -0.63,-3.855 -0.63,-3.855 0,0 0.144,1.412 0.396,3.884 0.117,1.236 0.258,2.737 0.42,4.459 0.153,1.722 0.297,3.667 0.454,5.787 0.151,2.121 0.29,4.42 0.371,6.853 0.098,2.432 0.118,4.998 0.139,7.649 -0.01,5.303 -0.3,10.961 -1.108,16.547 -0.39,2.792 -0.876,5.573 -1.53,8.269 -0.661,2.693 -1.447,5.309 -2.363,7.784 -0.954,2.459 -1.97,4.801 -3.093,6.946 -1.158,2.121 -2.323,4.1 -3.585,5.799 -2.458,3.443 -4.918,6.014 -6.75,7.675 -0.894,0.857 -1.657,1.471 -2.163,1.902 -0.509,0.43 -0.78,0.659 -0.78,0.659" /><path
           inkscape:connector-curvature="0"
           id="path90"
           style="fill:#110f0d;fill-opacity:1;fill-rule:nonzero;stroke:none"
           d="m -566.82827,916.50473 c 0,0 0.02,-0.303 0.058,-0.872 0.019,-0.571 0.127,-1.4 0.263,-2.446 0.186,-1.041 0.409,-2.31 0.893,-3.697 0.468,-1.387 1.134,-2.905 2.081,-4.425 0.95,-1.518 2.204,-3.018 3.74,-4.371 1.527,-1.365 3.364,-2.53 5.348,-3.558 3.994,-2.037 8.714,-3.243 13.48,-3.799 4.769,-0.61 9.622,-0.603 14.118,-0.157 4.496,0.444 8.669,1.229 12.101,2.366 1.709,0.578 3.254,1.188 4.533,1.896 1.279,0.701 2.315,1.482 2.933,2.319 0.657,0.821 0.767,1.694 0.669,2.242 -0.037,0.281 -0.116,0.483 -0.175,0.618 -0.054,0.137 -0.082,0.208 -0.082,0.208 0,0 0.033,-0.068 0.097,-0.201 0.069,-0.131 0.165,-0.329 0.224,-0.613 0.141,-0.544 0.109,-1.492 -0.54,-2.389 -0.601,-0.916 -1.628,-1.78 -2.898,-2.573 -1.27,-0.804 -2.811,-1.515 -4.537,-2.15 -1.725,-0.641 -3.642,-1.189 -5.692,-1.665 -2.051,-0.476 -4.24,-0.863 -6.525,-1.102 -4.562,-0.503 -9.491,-0.572 -14.373,10e-4 -4.866,0.624 -9.697,1.911 -13.813,4.068 -2.056,1.069 -3.917,2.368 -5.459,3.839 -1.551,1.462 -2.801,3.066 -3.73,4.67 -0.94,1.601 -1.534,3.205 -1.928,4.647 -0.414,1.44 -0.569,2.738 -0.697,3.796 -0.087,1.068 -0.114,1.905 -0.096,2.474 0.005,0.57 0.007,0.874 0.007,0.874" /></g></g></g></svg>